<svg width="32" height="32" xmlns="http://www.w3.org/2000/svg">
 <title>chart-box-plot</title>
 <desc>Created with Sketch.</desc>

 <g>
  <title>background</title>
  <rect fill="none" id="canvas_background" height="402" width="582" y="-1" x="-1"/>
 </g>
 <g>
  <title>Layer 1</title>
  <g fill-rule="evenodd" fill="none" id="Icons">
   <g fill="#333333" id="chart-box-plot">
    <path fill="#ffffff" id="Rectangle-32" d="m17,8l2.99147,0c1.10928,0 2.00853,0.898212 2.00853,1.990795l0,12.01841c0,1.099486 -0.90195,1.990795 -2.00853,1.990795l-2.99147,0l0,2.5l0,0.5l2.428571,0c0.552285,0 1,0.447715 1,1c0,0.552285 -0.447715,1 -1,1l-6.951728,0c-0.552285,0 -1,-0.447715 -1,-1c0,-0.552285 0.447715,-1 1,-1l2.523157,0l0,-0.5l0,-2.5l-2.99147,0c-1.10928,0 -2.00853,-0.898212 -2.00853,-1.990795l0,-12.01841c0,-1.099486 0.90195,-1.990795 2.00853,-1.990795l2.99147,0l0,-2.5l0,-0.5l-2.428571,0c-0.552285,0 -1,-0.447715 -1,-1c0,-0.552285 0.447715,-1 1,-1l6.951728,0c0.552285,0 1,0.447715 1,1c0,0.552285 -0.447715,1 -1,1l-2.523157,0l0,0.5l0,2.5l0,-1l0,1zm-5,8l8,0l0,6l-8,0l0,-6l0,0z"/>
   </g>
  </g>
 </g>
</svg>