<svg width="32px" height="32px" viewBox="0 0 32 32" version="1.1" xmlns="http://www.w3.org/2000/svg" xmlns:xlink="http://www.w3.org/1999/xlink" xmlns:sketch="http://www.bohemiancoding.com/sketch/ns">
    <title>chart-box-plot</title>
    <desc>Created with Sketch.</desc>
    <defs></defs>
    <g id="Icons" stroke="none" stroke-width="1" fill="none" fill-rule="evenodd" sketch:type="MSPage">
        <g id="chart-box-plot" sketch:type="MSArtboardGroup" fill="#333333">
            <path d="M17,8 L19.9914698,8 C21.1007504,8 22,8.89821238 22,9.99079514 L22,22.0092049 C22,23.1086907 21.0980496,24 19.9914698,24 L17,24 L17,26.5 L17,27 L19.4285714,27 C19.9808562,27 20.4285714,27.4477153 20.4285714,28 C20.4285714,28.5522847 19.9808562,29 19.4285714,29 L12.4768426,29 C11.9245579,29 11.4768426,28.5522847 11.4768426,28 C11.4768426,27.4477153 11.9245579,27 12.4768426,27 L15,27 L15,26.5 L15,24 L12.0085302,24 C10.8992496,24 10,23.1017876 10,22.0092049 L10,9.99079514 C10,8.89130934 10.9019504,8 12.0085302,8 L15,8 L15,5.5 L15,5 L12.5714286,5 C12.0191438,5 11.5714286,4.55228475 11.5714286,4 C11.5714286,3.44771525 12.0191438,3 12.5714286,3 L19.5231574,3 C20.0754421,3 20.5231574,3.44771525 20.5231574,4 C20.5231574,4.55228475 20.0754421,5 19.5231574,5 L17,5 L17,5.5 L17,8 L17,7 L17,8 Z M12,16 L20,16 L20,22 L12,22 L12,16 L12,16 Z" id="Rectangle-32" sketch:type="MSShapeGroup"></path>
        </g>
    </g>
</svg>
