<?xml version="1.0" encoding="UTF-8" standalone="no"?>
<svg width="32px" height="32px" viewBox="0 0 32 32" version="1.1" xmlns="http://www.w3.org/2000/svg" xmlns:xlink="http://www.w3.org/1999/xlink" xmlns:sketch="http://www.bohemiancoding.com/sketch/ns">
    <!-- Generator: Sketch 3.3.3 (12072) - http://www.bohemiancoding.com/sketch -->
    <title>chart-table</title>
    <desc>Created with Sketch.</desc>
    <defs></defs>
    <g id="Icons" stroke="none" stroke-width="1" fill="none" fill-rule="evenodd" sketch:type="MSPage">
        <g id="chart-table" sketch:type="MSArtboardGroup" fill="#333333">
            <path d="M2,5 C0.892,5 0,5.89202688 0,7 L0,25 C0,26.1079731 0.892,27 2,27 L30,27 C31.108,27 32,26.1079731 32,25 L32,7 C32,5.89202688 31.108,5 30,5 L2,5 Z M22,6.91304348 L30,6.91304348 L30,11.6956522 L22,11.6956522 L22,6.91304348 Z M12,13.6086957 L20,13.6086957 L20,18.3913043 L12,18.3913043 L12,13.6086957 Z M12,20.3043478 L20,20.3043478 L20,25.0869565 L12,25.0869565 L12,20.3043478 Z M2,13.6086957 L10,13.6086957 L10,18.3913043 L2,18.3913043 L2,13.6086957 Z M12,6.91304348 L20,6.91304348 L20,11.6956522 L12,11.6956522 L12,6.91304348 Z M22,13.6086957 L30,13.6086957 L30,18.3913043 L22,18.3913043 L22,13.6086957 Z M2,6.91304348 L10,6.91304348 L10,11.6956522 L2,11.6956522 L2,6.91304348 Z M2,20.3043478 L10,20.3043478 L10,25.0869565 L2,25.0869565 L2,20.3043478 Z M22,20.3043478 L30,20.3043478 L30,25.0869565 L22,25.0869565 L22,20.3043478 Z" id="Fill-1" sketch:type="MSShapeGroup"></path>
        </g>
    </g>
</svg>