<?xml version="1.0" standalone="no"?>
<!DOCTYPE svg PUBLIC "-//W3C//DTD SVG 1.1//EN" "http://www.w3.org/Graphics/SVG/1.1/DTD/svg11.dtd">
<svg xmlns="http://www.w3.org/2000/svg">
<metadata>Generated by Fontastic.me</metadata>
<defs>
<font id="untitled-font-2" horiz-adv-x="512">
<font-face font-family="untitled-font-2" units-per-em="512" ascent="480" descent="-32"/>
<missing-glyph horiz-adv-x="512" />

<glyph glyph-name="glyphicons-regular-1" unicode="&#97;" d="M21 395c0-3 1-6 3-8 2-2 5-3 8-3l469 0c3 0 6 1 8 3 2 2 3 5 3 8 0 3-1 5-3 7-2 2-5 3-8 3l-10 0c0 9-4 16-12 23-8 6-18 11-31 15-13 3-27 5-43 5l-85 0 0 32c0 3-1 6-3 8-2 2-5 3-8 3l-85 0c-3 0-6-1-8-3-2-2-3-5-3-8l0-32-85 0c-16 0-30-2-43-5-13-4-23-9-31-15-7-7-11-14-11-23l-11 0c-3 0-6-1-8-3-2-2-3-4-3-7z m470-75l53 0c3 0 6-1 8-2 2-2 3-3 3-5 0-2-1-5-3-7-1-3-3-5-6-7l-55-42 0-193c0-12-4-22-13-30-8-9-18-13-30-13l-363 0c-11 0-22 4-30 13-8 8-12 18-12 30l0 193-56 42c-2 2-4 4-6 7-2 2-2 5-2 7 0 2 1 3 3 5 2 1 4 2 7 2l54 0 0 43 448 0z"/>
<glyph glyph-name="glyphicons-regular-1-1" unicode="&#98;" d="M224 469l64 0c3 0 6-1 8-3 2-2 3-4 3-7l0-100 64 64c2 3 5 4 8 4 3 0 5-1 7-4l46-45c2-2 3-4 3-7 0-3-1-6-3-8l-65-64 100 0c3 0 5-1 7-3 2-2 3-5 3-8l0-64c0-3-1-6-3-8-2-2-4-3-7-3l-100 0 65-64c2-2 3-5 3-8 0-3-1-5-3-7l-46-46c-2-2-4-3-7-3-3 0-6 1-8 3l-64 65 0-100c0-3-1-5-3-7-2-2-5-3-8-3l-64 0c-3 0-6 1-8 3-2 2-3 4-3 7l0 100-64-65c-2-2-5-3-8-3-3 0-5 1-7 3l-45 45c-3 2-4 5-4 8 0 3 1 6 4 8l64 64-100 0c-3 0-5 1-7 3-2 2-3 5-3 8l0 64c0 3 1 6 3 8 2 2 4 3 7 3l100 0-64 64c-3 2-4 5-4 8 0 3 1 5 4 7l45 45c2 3 4 4 7 4 3 0 6-1 8-4l64-64 0 100c0 3 1 5 3 7 2 2 5 3 8 3z"/>
<glyph glyph-name="glyphicons-regular-1-2" unicode="&#99;" d="M383 491l84 0c2 0 3-1 4-2 2 0 2-2 2-3 0-2 0-3-1-4l-128-205 93 0c4 0 7-1 7-4 0-2-1-3-2-5l-31-46c-1-2-4-4-7-6-3-2-6-3-9-3l-75 0 0-42 117 0c4 0 7-2 7-5 0-1-1-3-2-4l-31-46c-1-3-4-5-7-7-3-1-6-2-9-2l-75 0 0-96c0-3-1-6-3-8-2-2-5-3-8-3l-85 0c-3 0-6 1-8 3-2 2-3 5-3 8l0 96-117 0c-4 0-6 1-6 4 0 2 0 3 1 5l31 46c2 2 4 4 7 6 4 2 7 3 10 3l74 0 0 42-117 0c-4 0-6 2-6 5 0 1 0 3 1 4l31 46c2 3 4 5 7 7 4 1 7 2 10 2l52 0-130 205c-1 1-1 3-1 4 0 1 1 3 2 3 1 1 2 2 4 2l85 0c3 0 6-1 9-3 4-2 6-4 8-6l94-142c1-2 3-4 6-4 2 0 4 2 5 4l94 142c1 2 4 4 7 6 3 2 6 3 9 3z"/>
<glyph glyph-name="glyphicons-regular-1-3" unicode="&#100;" d="M240 487c12 0 24-1 36-4 11-2 22-6 32-12 11-5 20-12 27-19 8-8 14-18 19-30 4-11 7-24 7-38l-79 0c1 7-1 13-3 18-3 5-7 9-11 12-5 3-11 5-16 7-6 1-12 2-18 2-5 0-9-1-13-2-5-1-9-2-12-4-4-2-7-5-10-9-2-3-3-8-3-13 0-3 1-6 2-9 2-3 4-5 8-8 3-2 6-4 10-6 4-1 9-3 15-5 5-1 11-3 16-4 4-1 10-3 18-5 7-2 13-3 18-5 9-3 18-6 27-10 9-5 18-10 26-16 9-6 17-12 23-19 7-7 12-14 16-22 4-9 6-17 6-25 0-27-8-49-24-66-15 10-35 19-59 27 3 3 5 7 5 12 0 5-1 9-4 14-2 4-5 8-8 11-3 3-7 7-13 10-6 3-11 6-16 9-5 2-11 5-18 7-8 3-14 5-19 7-5 1-12 3-20 6-7 2-13 4-18 6-6 2-12 4-19 7-7 3-12 7-17 10-6 3-11 7-16 12-5 5-9 10-12 15-3 6-6 12-8 19-2 7-3 15-3 23 0 11 2 22 6 31 3 10 8 18 15 25 6 7 13 13 22 19 8 5 17 9 27 12 9 4 19 6 29 8 10 1 19 2 29 2z m-104-182c7-5 15-9 24-13 8-4 15-7 20-9 6-2 12-4 19-6l1 0c-8-8-12-17-12-26 0-5 1-9 3-13 2-3 5-6 8-9 4-2 8-5 12-7 5-2 10-3 16-5 6-1 12-3 18-4 5-1 12-3 19-4 7-2 14-4 19-5 7-2 14-4 19-6 6-2 12-5 19-8 8-3 14-6 19-10 5-3 11-7 16-12 6-5 10-10 14-15 3-6 6-12 8-19 2-7 3-14 3-22 0-12-1-22-4-32-3-10-7-18-12-25-5-7-12-14-19-20-7-5-15-10-23-14-8-4-17-7-27-9-9-3-19-5-28-6-9-1-19-2-29-2-14 0-27 2-40 4-12 3-24 7-35 13-12 6-21 13-29 22-8 9-15 20-19 32-5 13-7 28-7 44l78 0c1-18 6-31 16-39 10-7 23-11 41-11 6 0 12 1 17 2 6 1 11 3 16 5 4 3 8 6 11 11 3 4 4 9 4 15 0 4-1 7-2 10-2 4-4 6-8 9-3 3-7 5-10 7-4 2-8 4-14 5-6 2-12 4-16 5-5 2-11 3-18 5-8 2-14 4-19 5-7 2-13 4-18 6-6 2-12 5-19 8-7 3-12 6-17 10-6 3-11 7-16 12-5 4-9 9-12 15-3 5-6 11-8 19-2 7-3 14-3 22 0 24 8 46 24 65z"/>
<glyph glyph-name="glyphicons-regular-1-4" unicode="&#101;" d="M224 427l64 0c3 0 6-1 8-3 2-2 3-5 3-8l0-64c0-3-1-6-3-8-2-2-5-3-8-3l-64 0c-3 0-6 1-8 3-2 2-3 5-3 8l0 64c0 3 1 6 3 8 2 2 5 3 8 3z m-149-128l362 0c3 0 6-1 8-3 2-2 3-5 3-8l0-64c0-3-1-6-3-8-2-2-5-3-8-3l-362 0c-3 0-6 1-8 3-2 2-3 5-3 8l0 64c0 3 1 6 3 8 2 2 5 3 8 3z m149-128l64 0c3 0 6-1 8-3 2-2 3-5 3-8l0-64c0-3-1-6-3-8-2-2-5-3-8-3l-64 0c-3 0-6 1-8 3-2 2-3 5-3 8l0 64c0 3 1 6 3 8 2 2 5 3 8 3z"/>
<glyph glyph-name="glyphicons-regular-1-5" unicode="&#102;" d="M207 512l77 0c-11-10-24-15-39-15-15 0-27 5-38 15z m-101-85l78 78c4-4 8-8 11-11l-47-110z m277 0l-43-43-46 109c4 3 7 7 11 11z m-192-43l27 96c10-3 18-4 27-4 8 0 17 1 25 4l28-96c-1-1-2-1-3-2-1-1-4-2-8-5-4-2-8-4-12-5-4-2-9-4-14-5-6-1-11-2-17-2-8 0-17 2-25 5-9 3-16 6-21 9z m123-81l67 67c29-23 50-46 62-71 12-25 18-53 18-84 0-29-5-57-15-82-10-26-24-48-43-67-18-19-41-34-68-44-28-11-58-17-91-17-33 0-63 6-90 17-28 10-50 25-69 44-18 19-32 41-42 67-10 25-16 53-16 82 0 32 6 60 17 84 12 25 32 49 61 71l67-67c-19-11-35-27-48-48-12-20-19-44-19-71 0-3 0-6 1-8 0-14 5-29 13-44 8-15 19-28 31-39 13-12 28-21 44-28 17-8 34-11 50-11 17 0 33 3 50 11 16 7 31 17 43 28 12 12 22 25 30 40 9 14 13 29 14 43 0 2 0 5 0 8 0 27-6 51-19 71-13 21-29 37-48 48z m-67-13l51 60c-2-1-5-3-8-5-3-1-9-4-18-7-9-3-18-5-26-5-8 0-17 2-26 4-9 3-16 6-21 9l-8 4z"/>
<glyph glyph-name="glyphicons-regular-1-6" unicode="&#103;" d="M305 488c18 0 35-2 51-7 16-5 32-12 46-21 14-10 26-21 37-35 11-13 20-29 27-47 7-18 12-37 14-58l-86 0c-1 11-5 21-10 31-5 10-12 18-20 26-8 7-17 14-27 18-11 5-21 7-32 7-14 0-26-1-36-4-10-2-19-7-28-13-8-6-15-15-21-25-6-11-10-24-14-40l144 0-17-64-137 0c0 0 0-2 0-4 0-3 0-5 0-9 0-4 0-6 0-8l133 0-18-64-102 0c4-11 9-22 14-31 6-9 13-18 21-25 7-8 17-14 27-18 10-4 22-6 34-6 26 0 47 8 62 26 16 17 25 42 28 75l86 0c-2-27-8-51-18-74-9-23-21-43-36-60-15-17-33-30-54-39-21-10-44-15-68-15-19 0-37 3-55 9-17 5-33 13-47 23-14 10-26 22-38 36-11 14-21 29-29 45-8 17-14 35-19 54l-83 0 17 64 56 0c0 2 0 4 0 8 0 4 0 6 0 9l0 4-73 0 17 64 64 0c12 54 34 95 66 124 33 30 74 44 124 44z"/>
<glyph glyph-name="glyphicons-regular-1-7" unicode="&#104;" d="M139 491l128 0c14 0 27-1 39-4 12-2 22-5 31-8 9-4 16-8 23-14 7-5 13-11 18-16 5-6 9-12 12-19 3-6 6-13 8-19 1-5 3-12 4-18 1-7 2-13 2-17 0-5 0-9 0-14l0-22c0-6 0-11 0-16 0-4-1-10-2-17-1-7-3-13-4-19-2-5-5-11-8-18-3-7-7-13-12-18-5-5-11-10-18-15-7-5-14-9-23-13-9-3-19-6-31-8-12-2-25-3-39-3l-43 0c-3 0-6-1-8-3-2-2-3-4-3-7l0-32 160 0c4 0 7-2 7-5 0-1-1-3-2-4l-31-46c-1-3-4-5-7-7-3-1-6-2-9-2l-118 0 0-96c0-3-1-6-3-8-2-2-5-3-8-3l-63 0c-3 0-6 1-8 3-2 2-3 5-3 8l0 96-96 0c-4 0-6 1-6 4 0 2 0 3 1 5l31 46c2 2 4 4 7 6 4 2 7 3 10 3l53 0 0 42-96 0c-4 0-6 2-6 5 0 1 0 3 1 4l31 46c2 3 4 5 7 7 4 1 7 2 10 2l53 0 0 203c0 3 1 6 3 8 2 2 5 3 8 3z m74-86l0-106 64 0c7 0 12 0 17 0 4 1 8 2 12 3 4 1 6 3 9 5 2 3 3 6 5 10 2 4 3 9 3 15 1 5 1 12 1 20 0 8 0 15-1 20 0 6-1 11-3 15-2 4-3 7-5 10-3 2-5 4-9 5-4 1-8 2-12 3-5 0-10 0-17 0z"/>
<glyph glyph-name="glyphicons-regular-1-8" unicode="&#105;" d="M448 203l0 64c0 3-1 5-3 7-2 2-5 3-8 3l-362 0c-3 0-6-1-8-3-2-2-3-4-3-7l0-64c0-3 1-6 3-8 2-2 5-3 8-3l362 0c3 0 6 1 8 3 2 2 3 5 3 8z"/>
<glyph glyph-name="glyphicons-regular-1-9" unicode="&#106;" d="M341 448l7-21-163 0 7 21 0 64 149 0z m-160-43l171 0c15 0 27-5 38-15 10-11 15-23 15-38l0-11 11 0c3 0 6-1 8-3 2-2 3-4 3-7l0-43c0-3-1-6-3-8-2-2-5-3-8-3l-11 0 0-96c0-14-5-27-15-37-11-11-23-16-38-16l-171 0c-14 0-27 5-37 16-11 10-16 23-16 37l0 171c0 15 5 27 16 38 10 10 23 15 37 15z m86-40c-14 0-26-2-39-8-12-5-22-12-31-21-9-8-16-19-21-31-5-12-8-25-8-38 0-14 3-26 8-39 5-12 12-22 21-31 9-9 19-16 31-21 13-5 25-8 39-8 13 0 26 3 38 8 12 5 23 12 31 21 9 9 16 19 21 31 6 13 8 25 8 39 0 13-2 26-8 38-5 12-12 23-21 31-8 9-19 16-31 21-12 6-25 8-38 8z m-6-24l11 0c1 0 3 0 4-1 1-1 1-3 1-4l0-59 38 0c1 0 2 0 3-1 1-1 2-3 2-4l0-11c0-1-1-2-2-3-1-1-2-2-3-2l-54 0c-1 0-2 1-3 2-1 1-2 2-2 3l0 75c0 1 1 3 2 4 1 1 2 1 3 1z m80-256l0-64-149 0 0 64-7 22 163 0z"/>
<glyph glyph-name="glyphicons-regular-1-10" unicode="&#107;" d="M427 512l0-43c0-5-2-11-7-15-4-4-9-6-15-6l-21 0 0-64c0-26-7-49-21-71-14-21-33-36-56-46 23-10 42-26 56-47 14-21 21-45 21-71l0-85 21 0c6 0 11-2 15-6 5-4 7-10 7-15l0-43-342 0 0 43c0 5 2 11 7 15 4 4 9 6 15 6l21 0 0 85c0 26 7 50 21 71 14 21 33 37 56 47-23 10-42 25-56 46-14 22-21 45-21 71l0 64-21 0c-6 0-11 2-15 6-5 4-7 10-7 15l0 43z m-256-64l0-64c0-17 4-32 14-47 9-14 21-24 37-31 8-4 14-9 19-16 4-7 7-15 7-23 0-9-3-17-7-24-5-7-11-12-19-15-16-7-28-18-37-32-10-14-14-30-14-47l0-85 170 0 0 85c0 17-4 33-14 47-9 14-21 25-37 32-8 3-14 8-19 15-4 7-7 15-7 24 0 8 3 16 7 23 5 7 11 12 19 16 16 7 28 17 37 31 10 15 14 30 14 47l0 64z m21-64l128 0c0-13-3-24-10-35-7-11-17-19-28-24-11-4-19-11-26-20-7 9-15 16-26 20-11 5-21 13-28 24-7 11-10 22-10 35z m64-220c7-9 15-15 26-20 11-5 21-13 28-24 7-10 10-22 10-35l-128 0c0 13 3 25 10 35 7 11 17 19 28 24 11 5 19 11 26 20z"/>
<glyph glyph-name="glyphicons-regular-1-11" unicode="&#108;" d="M405 337c17 0 33-3 49-10 15-7 28-16 39-27 11-11 20-25 26-40 7-16 10-32 10-49 0-17-3-33-10-48-6-16-15-29-26-40-11-12-24-21-39-28-16-6-32-10-49-10l-320 0c-14 0-28 4-41 12-12 7-22 18-30 30-7 13-11 27-11 42 0 20 7 37 19 53 12 15 27 25 46 29-1 5-1 11-1 16 0 21 4 41 12 61 9 19 20 36 34 50 14 14 31 25 50 33 19 9 40 13 61 13 31 0 60-9 86-26 25-17 44-39 57-67 12 4 25 6 38 6z"/>
<glyph glyph-name="glyphicons-regular-1-12" unicode="&#109;" d="M256 554c6 0 11-2 15-6 4-4 6-9 6-15l0-22c24-2 47-7 69-15 22-8 43-19 61-32 19-13 36-28 52-46 16-18 29-37 40-58 11-20 19-43 25-67 6-24 9-49 9-74l-1 0c-19 39-50 58-94 58-18 0-35-4-51-11-16-8-29-18-40-32-11 14-25 26-41 34-15 9-32 13-50 13-17 0-34-4-50-13-16-9-30-21-41-36-11 14-24 25-40 33-16 8-33 12-51 12-43 0-75-19-94-58l-1 0c0 25 3 50 9 74 6 24 14 47 25 67 11 21 24 40 40 58 16 18 33 33 52 46 18 13 39 24 61 32 22 8 45 13 69 15l0 22c0 6 2 11 6 15 4 4 9 6 15 6z m0-320c3 0 7 0 10 0 4-1 6-2 8-2 2-1 3-2 3-2l0-188c0-8-1-16-3-24-2-8-5-16-10-23-5-8-10-14-17-20-7-5-15-9-25-13-10-3-20-5-32-5-25 0-46 8-61 23-15 16-22 36-22 62l0 11c0 3 1 5 3 7 2 3 4 4 7 4l22 0c3 0 5-1 7-4 2-2 3-4 3-7l0-11c0-5 1-10 2-15 2-4 4-9 7-13 3-4 7-8 13-10 6-3 13-4 21-4 6 0 11 1 16 2 4 1 8 3 11 5 3 2 5 5 8 8 2 2 3 5 4 8 1 2 2 5 3 8 0 3 0 5 1 7 0 1 0 3 0 4l0 188c0 0 1 1 3 2 2 0 4 1 8 2 3 0 7 0 10 0z"/>
<glyph glyph-name="glyphicons-regular-1-13" unicode="&#110;" d="M277 512l0-86c0 1-7 2-21 2-14 0-21-1-21-2l0 86z m-186-59l60-61c-11-9-22-20-31-31l-61 60z m362-32l-61-60c-9 11-20 22-31 31l60 61z m-197-61c14 0 27-3 40-8 13-6 24-13 33-23 10-9 17-20 23-33 5-13 8-26 8-40 0-14-3-27-8-40-6-13-13-24-23-33-9-10-20-17-33-23-13-5-26-8-40-8-14 0-27 3-40 8-13 6-24 13-33 23-10 9-17 20-23 33-5 13-8 26-8 40 0 14 3 27 8 40 6 13 13 24 23 33 9 10 20 17 33 23 13 5 26 8 40 8z m-256-83l86 0c-1 0-2-7-2-21 0-14 1-21 2-21l-86 0z m512-42l-86 0c1 0 2 7 2 21 0 14-1 21-2 21l86 0z m-453-144l61 60c9-11 20-22 31-31l-60-61z m394 0l-32-32-60 61c11 9 22 20 31 31z m-176-91l-42 0 0 86c0-1 7-2 21-2 14 0 21 1 21 2z"/>
<glyph glyph-name="glyphicons-regular-1-14" unicode="&#111;" d="M255 512c16 0 30-4 43-11 13-8 24-18 31-32 8-13 12-27 12-42 0-15-4-29-12-42-9-13-19-24-30-32l0-284c20 4 38 11 53 20 16 10 30 22 44 36l-36 36c-2 2-3 4-3 6 1 2 3 3 6 3l137 20c3 0 5 0 7-2 2-2 2-4 2-7l-20-137c0-3-1-5-3-6-2 0-4 1-6 3l-40 40c-24-26-52-45-84-60-32-14-65-21-101-21-36 0-70 7-102 21-32 14-60 34-84 59l-39-39c-2-2-4-3-6-2-2 0-3 2-4 5l-19 137c-1 3 0 5 2 7 2 2 4 3 7 2l137-20c3 0 5-1 6-3 0-2 0-4-2-6l-36-35c13-15 28-27 44-37 16-9 34-16 54-20l0 284c-12 8-22 19-30 32-9 13-13 27-13 42 0 15 4 29 12 43 7 13 18 23 31 31 13 7 27 11 42 11z m0-40c-12 0-23-5-32-14-9-8-13-19-13-31 0-13 4-23 13-32 9-9 20-13 32-13 12 0 23 4 32 13 9 9 13 19 13 32 0 12-4 23-13 31-9 9-20 14-32 14z"/>
<glyph glyph-name="glyphicons-regular-1-15" unicode="&#112;" d="M246 398c-12 12-28 21-48 26 1 8 3 16 6 24 3 8 6 15 10 21 4 7 9 13 13 19 5 6 10 12 14 16 5 5 9 9 13 12 4 4 7 6 9 8l4 3c1-1 2-2 3-3 2-1 5-4 9-8 5-4 9-8 13-12 4-4 9-9 14-16 5-6 10-12 13-19 4-6 8-13 11-21 3-8 5-16 5-24-20-5-36-14-48-26-8-8-15-19-20-32-6 13-12 24-21 32z m115-210l0 0c4 5 8 9 12 12 5 4 9 7 13 9 4 2 10 4 16 6 6 2 13 4 18 5 6 1 13 3 23 5 9 3 18 5 26 8 0-19-1-36-4-50-3-15-7-27-11-36-5-9-11-17-17-23-7-6-13-10-20-13-6-2-13-4-20-5-7 0-14-1-19 0-5 1-10 2-16 3l-63-63 0-46-64 0 0 46-64 63c-5-1-10-2-16-3-5-1-11 0-19 0-7 1-14 3-20 5-7 3-13 7-19 13-7 6-13 14-17 23-5 9-9 21-12 36-3 14-4 31-4 50 10-3 21-6 31-9 11-3 19-5 25-6 5-1 11-3 17-5 6-1 10-3 14-5 3-2 7-5 10-8 4-3 8-7 11-12 8-9 12-19 14-30 2-10 2-21-1-33l50-49 0 163c-18 2-34 7-50 15-16 8-31 18-43 31-13 13-22 28-27 44-10 29-13 61-7 96 14 1 30 2 46 2-1 7-1 15-1 24 0 8 0 15 1 22l1 9c9 2 21 3 34 3-4-5-7-11-10-18-3-8-6-15-7-22-2-7-3-14-4-20-1-7-2-12-2-16l-1-6 21-6c28-7 47-23 57-47l24-58 23 58c10 24 29 40 57 47l21 6c0 1 0 3 0 6 0 3-1 8-2 15-1 8-3 15-4 21-2 7-4 14-7 21-3 8-7 14-10 19 6 0 11-1 17-1 6 0 10-1 12-1l4-1c0-1 1-2 1-4 0-1 0-4 0-9 1-5 1-9 1-14 0-4 1-9 0-14 0-6 0-10 0-14 16 0 31-1 46-2 5-35 3-67-7-96-6-16-15-31-27-44-13-13-27-23-43-31-16-8-33-13-50-15l0-163 49 49c-1 4-1 7-2 10 0 2 0 6 0 11 0 5 0 9 1 13 1 4 3 9 5 14 2 5 5 10 9 15z"/>
<glyph glyph-name="glyphicons-regular-1-16" unicode="&#113;" d="M467 502l46-45c7-8 11-17 11-28 0-10-4-19-11-27l-130-129c-8-8-22-19-43-34-21-14-38-25-53-32-13-7-23-12-30-16-7-3-16-8-25-14-9-6-16-11-21-16l-125-125 10-11c2-2 3-4 3-7 0-3-1-6-3-8l-10-10c-2-3-5-4-8-4-3 0-5 1-7 4l-61 60c-2 2-3 4-3 7 0 3 1 6 3 8l11 11c2 2 5 3 8 3 3 0 5-1 7-3l11-11 125 125c5 5 10 12 16 21 6 10 10 18 14 25 4 7 9 17 16 31 7 14 18 31 32 52 15 21 26 36 34 43l129 130c7 7 16 11 27 11 11 0 20-4 27-11z m-19-350c18 0 34-7 47-20 13-13 20-28 20-47 0-18-7-34-20-47-13-13-29-19-47-19-18 0-34 6-47 19-13 13-20 29-20 47 0 19 7 34 20 47 13 13 29 20 47 20z"/>
<glyph glyph-name="glyphicons-regular-1-17" unicode="&#114;" d="M309 488c5-3 8-7 9-12 1-5 0-10-3-14l-36-58 199-319 13 0c5 0 10-2 15-8 4-5 6-11 6-17l0-17-512 0 0 17c0 6 2 12 6 17 5 6 10 8 15 8l13 0 200 319-36 56c-3 5-4 10-3 15 2 5 4 9 9 12 4 3 9 3 14 2 6-1 10-4 12-8l26-42 27 42c3 5 6 8 12 9 5 1 10 1 14-2z m-53-403l161 0-88 39-73 237z"/>
<glyph glyph-name="glyphicons-regular-1-18" unicode="&#115;" d="M257 512c10 0 19-2 27-5 8-4 15-9 20-15 5-6 9-12 12-20 3-7 4-15 4-23l0-149 184-153c2-2 4-5 6-8 1-4 2-7 2-10l0-36c0-3-1-5-3-6-2-1-4-1-6 0l-204 106 0-128 55-45c3-1 5-4 6-7 2-4 3-7 3-10l0-16c0-3-1-5-3-7-2-1-5-2-8-1l-75 22c-3 1-10 2-21 2-11 0-18-1-21-2l-75-22c-3-1-6 0-8 1-2 2-3 4-3 7l0 16c0 3 1 6 3 10 1 3 3 6 6 7l55 45 0 128-204-106c-2-1-4-1-6 0-2 1-3 3-3 6l0 36c0 3 1 6 2 10 2 3 4 6 6 8l184 153 0 149c0 8 1 16 4 23 3 8 7 14 13 20 5 6 12 11 20 15 8 3 18 5 28 5z"/>
<glyph glyph-name="glyphicons-regular-1-19" unicode="&#116;" d="M256 171l-256 256 512 0z m-128 85l-128-128 0 256z m384-128l-128 128 128 128z m0-43l-512 0 149 150 107-107 107 107z"/>
<glyph glyph-name="glyphicons-regular-1-20" unicode="&#117;" d="M443 508l65-65c3-3 4-7 4-11 0-4-1-8-4-11l-44-44-87 87 44 44c3 3 7 4 11 4 4 0 8-1 11-4z m-5-157l-274-274-87 87 274 274z m-300-300l-131-51c-3-1-5-1-6 1-2 1-2 3-1 6l51 131z"/>
<glyph glyph-name="glyphicons-regular-1-21" unicode="&#118;" d="M277 499l20 21c4 3 7 5 11 6 4 0 7 0 10-1 4-1 7-3 9-6 3-2 5-5 6-9 1-3 1-6 1-10-1-4-3-7-6-11l-51-50 0-64 46-22 40 40 0 76c0 6 1 10 4 14 3 3 7 5 11 6 4 1 8 1 12 0 4-1 8-3 11-6 3-4 4-8 4-14l0-34 32 32c3 3 6 5 9 6 3 1 6 1 9 0 3-1 6-2 8-3 3-2 5-4 7-7 1-3 2-5 3-8 1-3 1-6 0-9-1-3-3-6-6-9l-32-32 34 0c6 0 10-1 14-4 3-3 5-7 6-11 1-4 1-8 0-12-1-4-3-8-6-11-4-3-8-4-14-4l-76 0-40-40 22-46 64 0 50 51c3 2 6 4 9 5 3 1 6 1 9 1 3-1 6-2 9-4 2-2 4-4 6-6 2-3 3-6 4-9 0-3 0-6-1-9-1-3-3-6-5-9l-21-20 34 0c6 0 10-1 14-4 3-3 5-7 6-11 1-4 1-8 0-12-1-4-3-8-6-11-4-3-8-4-14-4l-34 0 21-20c3-4 5-7 6-11 0-4 0-7-1-10-1-4-3-7-6-9-2-3-5-5-9-6-3-1-6-1-10-1-4 1-7 3-11 6l-50 51-64 0-22-45 40-41 76 0c6 0 10-1 14-4 3-3 5-7 6-11 1-4 1-8 0-12-1-4-3-8-6-11-4-3-8-4-14-4l-34 0 32-32c3-3 5-6 6-10 1-4 1-8-1-11-1-3-3-6-5-9-3-2-6-4-9-5-3-2-7-2-11-1-4 1-7 3-10 6l-32 32 0-34c0-6-1-10-4-14-3-3-7-5-11-6-4-1-8-1-12 0-4 1-8 3-11 6-3 4-4 8-4 14l0 76-41 40-45-22 0-64 51-50c3-4 5-7 6-11 0-4 0-7-1-10-1-4-3-7-6-9-2-3-5-5-9-6-3-1-6-1-10-1-4 1-7 3-11 6l-20 21 0-34c0-6-1-10-4-14-3-3-7-5-11-6-4-1-8-1-12 0-4 1-8 3-11 6-3 4-4 8-4 14l0 34-20-21c-4-3-7-5-11-6-4 0-7 0-10 1-4 1-7 3-9 6-3 2-5 5-6 9-1 3-1 6-1 10 1 4 3 7 6 11l51 50 0 64-46 22-40-40 0-76c0-6-1-10-4-14-3-3-7-5-11-6-4-1-8-1-12 0-4 1-8 3-11 6-3 4-4 8-4 14l0 34-32-32c-3-3-6-5-9-6-3-1-6-1-9 0-3 1-5 2-8 3-3 2-5 4-7 7-1 3-2 5-3 8-1 3-1 6 0 9 1 3 3 6 6 9l32 32-34 0c-6 0-10 1-14 4-3 3-5 7-6 11-1 4-1 8 0 12 1 4 3 8 6 11 4 3 8 4 14 4l76 0 40 40-22 46-64 0-50-51c-3-2-6-4-9-5-3-1-6-1-9-1-3 1-6 2-9 4-2 2-4 4-6 6-2 3-3 6-4 9 0 3 0 6 1 9 1 3 3 6 5 9l21 20-34 0c-6 0-10 1-14 4-3 3-5 7-6 11-1 4-1 8 0 12 1 4 3 8 6 11 4 3 8 4 14 4l34 0-21 20c-3 4-5 7-6 11 0 4 0 7 1 10 1 4 3 7 6 9 2 3 5 5 9 6 3 1 6 1 10 1 4-1 7-3 11-6l50-51 64 0 22 46-40 40-76 0c-6 0-10 1-14 4-3 3-5 7-6 11-1 4-1 8 0 12 1 4 3 8 6 11 4 3 8 4 14 4l34 0-32 32c-3 3-5 6-6 9-1 3-1 6 0 9 1 3 2 5 3 8 2 3 4 5 7 7 3 1 5 2 8 3 3 1 6 1 9 0 3-1 6-3 9-6l32-32 0 34c0 6 1 10 4 14 3 3 7 5 11 6 4 1 8 1 12 0 4-1 8-3 11-6 3-4 4-8 4-14l0-76 41-40 45 22 0 64-51 50c-3 4-5 7-6 11 0 4 0 7 1 10 1 4 3 7 6 9 2 3 5 5 9 6 3 1 6 1 10 1 4-1 7-3 11-6l20-21 0 34c0 7 2 12 6 16 5 3 10 5 15 5 5 0 10-2 15-5 4-4 6-9 6-16z m-76-188l-27-55 27-55 55-27 55 27 27 55-27 55-55 27z"/>
<glyph glyph-name="glyphicons-regular-1-22" unicode="&#119;" d="M276 237l0-176 149-50 0-11-341 0 0 11 149 50 0 178-221 273 488 0z m-193 232l150-191-86 191z"/>
<glyph glyph-name="glyphicons-regular-1-23" unicode="&#120;" d="M512 517c-23-7-48-14-73-20-26-7-47-12-65-16-17-4-36-9-55-14-19-5-35-9-49-14-14-4-28-9-42-15-15-6-28-13-39-20-11-8-22-16-33-26-12-10-22-22-32-35-36-46-54-97-54-153 0-12 1-24 2-37 2-12 4-24 6-36 2-11 3-19 3-24l-81-81 0-31 93 94c5 0 13-1 26-3 13-2 28-4 46-6 18-2 35-3 52-3 15 0 29 1 43 2 14 2 29 5 45 10 15 4 30 10 44 17 14 7 28 17 42 29 15 12 28 26 39 42 12 15 23 34 33 57 10 22 19 47 26 74 7 27 13 58 17 93 4 36 6 74 6 116z m-45-65c0 0 1-1 1-2 0-2-1-5-3-9-1-4-2-8-4-12l-2-5c-22-45-51-82-87-111-19-15-46-31-81-50-3-2-7-4-12-7-30-16-60-34-89-54-29-20-49-37-60-52-2-3-4-6-8-9-3-3-5-5-6-5-1 0-2 1-2 2 0 4 2 10 6 19 6 15 15 29 26 43 11 15 23 27 35 38 13 11 27 23 43 34 17 11 31 21 44 29 13 7 28 15 44 24 32 17 55 30 68 39 28 19 51 41 69 66 10 15 16 22 18 22z"/>
<glyph glyph-name="glyphicons-regular-1-24" unicode="&#121;" d="M317 411l111 112c6 6 10 9 14 9 4 0 6-3 6-9l0-32c0-3 0-5 0-6 0-2 1-3 1-5 1-2 2-4 3-5l100-98c1-1 2-3 2-5 0-3-1-5-4-8l-68-44c-2-2-5-3-8-3-3 0-6 1-9 3l-14 12c-2 2-4 3-7 3-4 0-6-1-9-3l-22-23c-3-2-5-4-8-4-3 0-5 2-8 4l-80 87c-3 2-4 5-4 8 0 3 1 5 4 7z m-314-7c2 2 4 3 6 3 2 0 5-1 8-3 24-17 40-28 48-33 4-3 8-5 13-6 5-1 9-2 12-2l4 0 158 0c4 0 7 0 10 1 3 0 6 1 8 2 2 1 3 2 5 3 1 1 2 2 3 3l0 1c2 2 5 3 8 3 3 0 5-1 7-3l82-88c3-2 5-5 6-8 2-4 3-7 3-10l0-246c0-5-2-11-6-15-4-4-10-6-15-6l-22 0c-5 0-11 2-15 6-4 4-6 10-6 15l0 142c0 3-1 6-2 8-2 2-4 4-7 4l-183 38c-3 1-6 0-10-1-4-1-7-3-9-5l-45-78 0-108c0-5-2-11-6-15-4-4-10-6-15-6l-22 0c-5 0-11 2-15 6-4 4-6 10-6 15l0 223c0 3 1 6 2 10 1 4 3 7 4 9l41 57c2 2 2 4 2 7 0 4-1 7-4 9l-41 53c-3 2-4 5-4 8 0 3 1 5 3 7z"/>
<glyph glyph-name="glyphicons-regular-1-25" unicode="&#122;" d="M267 491c15 0 29-3 41-8 13-5 23-12 31-21 8-8 14-18 18-30 4-12 6-24 6-37l0-64c0-21-7-37-22-47l0-81c8-3 16-7 27-12 10-5 20-10 29-15 10-5 20-11 31-17 12-6 21-11 28-15 7-5 14-9 22-13 8-5 12-7 13-7 8-5 14-11 17-16 3-6 4-14 4-26l0-50c0-3-1-6-3-8-2-2-5-3-8-3l-469 0c-3 0-6 1-8 3-2 2-3 5-3 8l0 50c0 12 2 20 5 26 3 5 8 11 17 16 73 41 123 68 149 79l0 80c-14 11-21 27-21 48l0 64c0 13 2 25 6 37 4 12 10 22 18 30 7 9 17 16 30 21 12 5 26 8 42 8z"/>
<glyph glyph-name="glyphicons-regular-1-26" unicode="&#65;" d="M256 491c14 0 27-3 40-9 12-6 23-14 32-24 10-10 17-21 23-34 6-13 10-26 12-40l0-85 29-55 74-25-49-49-44 66-53-19 0-43c13-7 27-15 44-26 17-11 32-21 47-31 14-10 22-16 25-18 7-4 13-9 18-14 5-6 8-11 10-16 2-4 3-9 4-13 1-4 2-7 2-10l-1-3 0-11c0-3-1-6-3-8-2-2-4-3-7-3l-406 0c-3 0-5 1-7 3-2 2-3 5-3 8l0 11 0 0c0 1 0 2 0 3-1 2 0 5 1 10 0 5 2 9 4 14 2 4 5 9 10 14 5 6 11 11 18 15 3 2 11 8 25 18 15 10 30 20 47 31 17 11 31 19 44 26l0 43-53 19-44-66-49 49 74 25 29 55 0 85c0 14 3 27 8 40 5 13 12 24 21 34 10 10 21 18 34 24 14 6 28 9 44 9z"/>
<glyph glyph-name="glyphicons-regular-1-27" unicode="&#66;" d="M114 491l284 0c9 0 17-1 22-4 6-2 11-5 15-9 4-5 8-11 12-20l35-117 41 0c3 0 5-1 7-3 2-2 3-4 3-7l0-22c0-3-1-5-3-7-2-2-4-3-7-3l-20 0 9-22 0-245c0-3-1-6-3-8-2-2-5-3-8-3l-42 0c-3 0-6 1-8 3-2 2-3 5-3 8l0 32-384 0 0-32c0-3-1-6-3-8-2-2-5-3-8-3l-42 0c-3 0-6 1-8 3-2 2-3 5-3 8l0 245 9 22-20 0c-3 0-5 1-7 3-2 2-3 4-3 7l0 22c0 3 1 5 3 7 2 2 4 3 7 3l41 0 35 117c4 9 8 15 12 20 4 4 9 7 15 9 5 3 13 4 22 4z m286-43l-288 0c-6 0-10-3-13-9-1-2-4-11-8-28-4-16-8-32-12-47l-6-23 366 0c-15 60-23 93-26 98-3 6-7 9-13 9z m-379-235l22-21 64 0 0 43-86 23z m384 22l0-43 64 0 22 21 0 45z m-234-86l0-42 170 0 0 42z"/>
<glyph glyph-name="glyphicons-regular-1-28" unicode="&#67;" d="M491 533c19 0 37-4 53-14 17-9 30-22 39-39 10-16 14-34 14-53 0-20-4-38-14-54-9-16-22-29-39-39-16-9-34-14-53-14-20 0-38 4-54 12-16 8-29 20-38 37-10 16-15 35-15 58 0 20 5 39 14 55 10 17 23 29 39 38 16 9 34 13 54 13z m-246-42c21 0 39-5 53-14 15-8 26-20 33-34 7-14 10-30 10-48l0-64c0-21-7-37-21-47l0-81c26-11 76-37 149-79 9-5 14-10 17-16 3-6 5-14 5-26l0-50c0-3-1-6-4-8-2-2-4-3-7-3l-469 0c-3 0-6 1-8 3-2 2-3 5-3 8l0 50c0 12 1 20 4 26 3 6 9 11 17 16 69 39 119 66 150 79l0 80c-15 11-22 27-22 48l0 64c0 18 4 34 11 48 7 14 17 26 32 34 15 9 33 14 53 14z m256 0l-21 0c-3 0-5-1-7-3-3-2-4-5-4-8l0-32-32 0c-3 0-5-1-7-3-2-2-3-5-3-8l0-21c0-3 1-6 3-8 2-2 4-3 7-3l32 0 0-32c0-3 1-5 4-7 2-2 4-3 7-3l21 0c3 0 6 1 8 3 2 2 3 4 3 7l0 32 32 0c3 0 5 1 7 3 3 2 4 5 4 8l0 21c0 3-1 6-4 8-2 2-4 3-7 3l-32 0 0 32c0 3-1 6-3 8-2 2-5 3-8 3z"/>
<glyph glyph-name="glyphicons-regular-1-29" unicode="&#68;" d="M491 533c19 0 37-4 53-14 17-9 30-22 39-39 10-16 14-34 14-53 0-20-4-38-14-54-9-16-22-29-39-39-16-9-34-14-53-14-20 0-38 4-54 12-16 8-29 20-38 37-10 16-15 35-15 58 0 20 5 39 14 55 10 17 23 29 39 38 16 9 34 13 54 13z m-246-42c21 0 39-5 53-14 15-8 26-20 33-34 7-14 10-30 10-48l0-64c0-21-7-37-21-47l0-81c26-11 76-37 149-79 9-5 14-10 17-16 3-6 5-14 5-26l0-50c0-3-1-6-3-8-2-2-5-3-8-3l-469 0c-3 0-6 1-8 3-2 2-3 5-3 8l0 50c0 12 1 20 4 26 3 6 9 11 17 16 69 39 119 66 150 79l0 80c-15 11-22 27-22 48l0 64c0 18 4 34 11 48 7 14 17 26 32 34 15 9 33 14 53 14z m299-43l-107 0c-3 0-5-1-7-3-2-2-3-5-3-8l0-21c0-3 1-6 3-8 2-2 4-3 7-3l107 0c3 0 5 1 7 3 3 2 4 5 4 8l0 21c0 3-1 6-4 8-2 2-4 3-7 3z"/>
<glyph glyph-name="glyphicons-regular-1-30" unicode="&#69;" d="M43 533l426 0c6 0 11-2 15-6 5-4 7-9 7-15l0-512c0-6-2-11-7-15-4-4-9-6-15-6l-426 0c-6 0-11 2-15 6-5 4-7 9-7 15l0 512c0 6 2 11 7 15 4 4 9 6 15 6z m0-42l0-43 64 0 0 43z m85 0l0-214 256 0 0 214z m277 0l0-43 64 0 0 43z m-362-86l0-42 64 0 0 42z m362 0l0-42 64 0 0 42z m-362-85l0-43 64 0 0 43z m362 0l0-43 64 0 0 43z m-362-85l0-43 64 0 0 43z m85 0l0-214 256 0 0 214z m277 0l0-43 64 0 0 43z m-362-86l0-42 64 0 0 42z m362 0l0-42 64 0 0 42z m-362-85l0-43 64 0 0 43z m362 0l0-43 64 0 0 43z"/>
<glyph glyph-name="glyphicons-regular-1-31" unicode="&#70;" d="M106 404l-105-33 105-31 33-106 31 106 105 32-105 32-32 107z m370 101l31-30c2-2 3-5 3-8 0-3-1-5-3-7l-86-86-46 45 86 86c2 2 5 3 8 3 3 0 5-1 7-3z m-89-165l-336-336c-2-2-4-3-7-3-3 0-6 1-8 3l-30 31c-2 2-3 4-3 7 0 3 1 6 3 8l336 335z m34-78l-57-17 57-17 17-56 17 56 56 17-56 17-17 57z m-111-125l-74-22 74-22 21-73 22 73 73 22-73 22-22 73z"/>
<glyph glyph-name="glyphicons-regular-1-32" unicode="&#71;" d="M198 469l116 0c14 0 27-4 40-13 13-9 22-19 27-32l6-16c1-1 1-1 1-1 0-1 0-1 0-2l73 0c13 0 25-3 36-9 11-7 20-16 27-27 6-11 9-23 9-36l0-218c0-13-3-25-9-36-7-11-16-20-27-27-11-6-23-9-36-9l-410 0c-13 0-25 3-36 9-11 7-20 16-27 27-6 11-9 23-9 36l0 218c0 13 3 25 9 36 7 11 16 20 27 27 11 6 23 9 36 9l73 0c0 1 0 1 0 2 0 0 0 0 1 1l6 16c5 13 14 23 27 32 13 9 26 13 40 13z m229-128l0-21 42 0 0 21z m-171-16c-15 0-30-3-44-9-13-5-25-13-35-23-10-10-18-22-24-36-6-14-9-28-9-44 0-15 3-29 9-43 6-14 14-26 24-36 10-10 22-18 35-24 14-6 29-9 44-9 15 0 30 3 44 9 13 6 25 14 35 24 10 10 18 22 24 36 6 14 9 28 9 43 0 16-3 30-9 44-6 14-14 26-24 36-10 10-22 18-35 23-14 6-29 9-44 9z m0-53c16 0 30-6 41-17 12-12 18-25 18-42 0-16-6-30-18-41-11-12-25-17-41-17-16 0-30 5-41 17-12 11-18 25-18 41 0 17 6 30 18 42 11 11 25 17 41 17z"/>
<glyph glyph-name="glyphicons-regular-1-33" unicode="&#72;" d="M251 420c11 16 23 29 37 39 14 10 27 17 41 21 13 4 27 6 41 5 15-1 28-4 41-9 13-5 25-12 36-20 11-9 21-19 29-30 8-12 15-24 19-38 5-14 8-29 8-43 0-13-3-26-8-39-6-13-14-26-24-39-10-14-21-27-34-40-12-13-26-28-42-43-16-16-32-31-47-46-15-16-32-33-49-53-18-20-34-39-48-58-14 19-30 38-47 58-18 20-34 37-49 53-16 15-31 30-47 46-16 15-30 30-43 43-12 13-24 26-34 40-10 13-17 26-23 39-5 13-8 26-8 39 0 14 2 29 7 43 5 14 12 26 20 38 9 11 19 21 30 30 12 8 24 15 37 20 13 5 26 8 41 9 14 1 28-1 41-5 14-4 27-11 40-21 13-10 25-23 35-39z"/>
<glyph glyph-name="glyphicons-regular-1-34" unicode="&#73;" d="M392 509c5-3 9-7 10-13 2-6 1-12-2-17l-12-20c19-12 35-27 50-44 14-16 26-34 35-53 10-19 17-39 22-60 4-21 7-42 6-63 0-21-3-43-9-64-6-22-15-42-26-62-4-7-8-14-13-21 1 19-3 38-12 55-9 17-22 30-39 40-14 8-28 13-44 14-15 1-30-2-44-7-1 18-6 34-15 50-10 16-22 28-39 37-15 9-33 14-51 15-18 0-35-4-50-11-3 14-8 28-17 41-8 12-19 22-33 30-18 10-36 14-56 13-19-1-37-7-53-18 4 8 8 16 12 24 12 20 25 38 41 53 15 16 32 30 50 41 18 10 38 19 58 25 21 7 42 11 63 12 21 1 42 0 64-4 22-5 43-11 63-21l11 20c3 5 8 9 13 10 6 2 12 1 17-2z m-153-42c-27 0-53-5-78-14-25-10-48-23-68-41l-6-5 7-2c13-4 23-8 31-11 7-3 15-8 22-13 7-5 13-11 18-18 5-7 11-16 17-27l3-7 4 7c8 13 18 26 28 37 10 11 19 20 27 28 9 7 18 13 27 18 8 5 16 9 22 11 7 3 13 5 19 6 6 2 10 3 12 3 2 0 4 0 5 0l2 8c-29 13-60 20-92 20z m130-42l-6-6c1 0 1-2 2-4 1-2 2-6 4-12 2-6 3-12 4-19 1-6 2-15 2-25 0-11-1-21-3-32-2-11-5-24-10-38-5-14-11-28-19-43l-3-6 7 0c4 0 7 0 11 0 13 0 25-1 35-4 10-3 19-7 27-12 9-6 19-14 31-25l5-5 2 7c4 22 5 43 3 64-3 22-8 42-15 61-7 19-18 37-31 54-13 17-28 32-46 45z m-294-421l143 247c8-1 15-4 21-8 6-3 12-8 17-13l-130-226z"/>
<glyph glyph-name="glyphicons-regular-1-35" unicode="&#74;" d="M128 512l256 0c12 0 23-4 32-12 10-8 15-18 17-30 3-13 6-29 10-49 4-20 9-49 16-88 7-39 10-64 10-77l0-64c0-9-1-18-2-28-2-9-5-18-9-28-5-10-10-18-16-25-6-8-15-14-25-19-10-4-21-7-33-7l-256 0c-16 0-29 3-40 8-11 5-20 12-27 22-6 9-11 21-14 33-3 13-4 27-4 44l0 64c0 13 3 37 9 72 6 36 12 69 18 98l9 44c2 12 7 22 17 30 9 8 20 12 32 12z m260-43l-263 0c-1 0-2 0-4-2-2-1-2-3-3-4l-33-186c3-1 6-3 10-5 4-2 13-6 26-12 13-5 25-10 38-15 13-4 28-8 46-12 18-3 35-5 51-5 16 0 33 2 50 5 18 4 33 8 47 12 14 5 26 10 38 15 11 5 20 9 26 12l10 5-32 186c-1 1-2 3-3 4-2 2-3 2-4 2z m-303-298l86-22 0 43-86 43z m256 21l0-43 86 22 0 64z m-213-235l-85 0 95 107 47 0z m341 0l-85 0-58 107 47 0z"/>
<glyph glyph-name="glyphicons-regular-1-36" unicode="&#75;" d="M160 512l192 0c3 0 6-1 8-3 2-2 3-5 4-8l40-190c1-3 0-6-2-8-2-2-4-3-7-3l-278 0c-3 0-5 1-7 3-2 2-3 5-2 8l40 190c1 3 2 6 4 8 2 2 5 3 8 3z m277-149l64 0c3 0 6-1 8-3 2-2 3-5 3-8l0-298c0-3-1-6-3-8-2-2-5-3-8-3l-79 0c-3 0-5 1-8 3-2 2-4 4-5 7l-8 43c-1 3-2 6-5 8-3 2-5 3-8 3l-264 0c-3 0-5-1-8-3-3-2-4-5-5-8l-8-43c-1-3-3-5-5-7-3-2-5-3-8-3l-79 0c-3 0-6 1-8 3-2 2-3 5-3 8l0 298c0 3 1 6 3 8 2 2 5 3 8 3l63 0c3 0 6-1 8-4 2-2 3-4 3-7l0-64c0-3 1-6 3-8 2-2 4-3 7-3l321 0c3 0 6 1 8 3 2 2 3 5 3 8l0 64c0 3 1 6 3 8 2 2 4 3 7 3z m-394-22c-6 0-11-2-15-6-5-5-7-10-7-15 0-6 2-11 7-16 4-4 9-6 15-6 5 0 11 2 15 6 4 5 6 10 6 16 0 5-2 10-6 15-4 4-10 6-15 6z m106-256l214 0c3 0 5-1 8-3 3-2 4-4 5-7l16-65c1-3 0-5-1-7-2-2-4-3-7-3l-256 0c-3 0-5 1-7 3-1 2-2 4-1 7l16 65c1 3 2 5 5 7 3 2 5 3 8 3z"/>
<glyph glyph-name="glyphicons-regular-1-37" unicode="&#76;" d="M213 555l86 0c11 0 21-5 30-13 8-8 12-18 12-30l0-43 118 0c3 0 5-1 7-3 2-2 3-4 3-7l0-22c0-3-1-5-3-7-2-2-4-3-7-3l-406 0c-3 0-5 1-7 3-2 2-3 4-3 7l0 22c0 3 1 5 3 7 2 2 4 3 7 3l118 0 0 43c0 12 4 22 12 30 9 8 19 13 30 13z m0-43l0-43 86 0 0 43z m-138-107l358 0c10 0 15-3 15-8l0-429c0-3-1-6-4-8-3-2-7-3-11-3l-358 0c-3 0-5 1-7 2-1 1-3 2-3 3l-1 2 0 431c0 3 1 6 2 8 2 1 5 2 9 2z m85-64l-21 0c-3 0-6-1-8-3-2-2-3-4-3-7l0-299c0-3 1-6 3-8 2-2 5-3 8-3l21 0c3 0 6 1 8 3 2 2 3 5 3 8l0 299c0 3-1 5-3 7-2 2-5 3-8 3z m107 0l-22 0c-3 0-5-1-7-3-2-2-3-4-3-7l0-299c0-3 1-6 3-8 2-2 4-3 7-3l22 0c3 0 5 1 7 3 2 2 3 5 3 8l0 299c0 3-1 5-3 7-2 2-4 3-7 3z m106 0l-21 0c-3 0-6-1-8-3-2-2-3-4-3-7l0-299c0-3 1-6 3-8 2-2 5-3 8-3l21 0c3 0 6 1 8 3 2 2 3 5 3 8l0 299c0 3-1 5-3 7-2 2-5 3-8 3z"/>
<glyph glyph-name="glyphicons-regular-1-38" unicode="&#77;" d="M469 128l0 376c0 3-1 5-3 7-2 1-4 1-7 1l-299-79c-3-1-6-3-8-5-2-3-3-6-3-9l0-294c-16 5-36 3-59-4-14-5-27-12-38-22-11-9-19-19-23-31-5-11-5-22-2-32 4-10 10-19 21-26 10-6 22-10 35-12 14-1 28 0 44 5 18 6 34 15 46 27 12 11 18 23 19 34l0 272 235 62 0-209c-17 4-37 3-59-4-15-5-28-12-39-22-11-9-18-19-23-31-4-11-5-22-1-32 3-10 10-19 20-26 10-7 22-11 36-12 13-1 28 0 43 5 18 6 34 14 46 26 12 12 19 24 19 35z"/>
<glyph glyph-name="glyphicons-regular-1-39" unicode="&#78;" d="M227 512l37 0c4 0 7-1 9-4 3-2 4-5 4-9l0-12c6-3 14-6 25-10 10-5 20-9 29-12 9-4 19-8 30-14 11-5 20-11 28-16 8-6 15-13 21-21 7-8 11-16 13-26 3-11 4-22 3-32 0-10-2-20-6-28-3-9-7-17-12-24-4-7-9-13-15-18-5-6-10-10-15-13-4-3-8-6-11-7-6-2-9-2-9-1-1 1 0 2 2 5l3 3c1 1 2 3 3 5 1 2 3 7 6 13 3 7 5 13 6 19 1 6 2 13 1 22-1 8-3 15-7 22-4 5-8 10-14 13-7 4-14 6-21 8-7 2-15 3-22 5-7 1-15 2-22 4-7 2-12 3-16 6l0-302c0-1 0-1 0-2 0 0 0-1 0-1-2-16-10-31-24-46-15-15-33-26-55-33-13-4-27-7-40-7-14 0-26 1-37 5-10 3-20 8-28 15-8 6-13 14-16 24-4 12-3 25 2 38 5 14 15 26 28 37 13 11 29 20 47 25 7 3 15 4 23 5 7 1 14 2 19 1 5 0 11 0 18-1l0 351c0 4 1 7 4 9 2 3 6 4 9 4z"/>
<glyph glyph-name="glyphicons-regular-1-40" unicode="&#79;" d="M256 420c11 16 23 29 37 39 13 10 27 17 40 21 14 4 28 6 42 5 14-1 28-4 40-9 13-5 25-12 37-20 11-9 21-19 29-30 8-12 14-24 19-38 5-14 7-28 7-43 0-13-2-26-8-39-5-13-13-26-23-39-10-14-21-27-34-40-12-13-27-28-43-43-15-16-31-31-46-46-16-16-32-33-50-53-17-19-33-39-47-58-14 19-30 39-47 58-18 20-34 37-50 53-15 15-31 30-46 46-16 15-31 30-43 43-13 13-24 26-34 40-10 13-18 26-23 39-6 13-8 26-8 39 0 15 2 29 7 43 5 14 12 26 20 38 8 11 18 21 30 30 11 8 24 15 36 20 13 5 27 8 41 9 14 1 28-1 42-5 13-4 27-11 40-21 13-10 25-23 35-39z m112 12c-12 0-25-4-36-11-12-7-23-18-32-31l-45-66-44 67c-18 27-39 41-65 41-10 0-21-2-31-7-11-4-20-10-29-18-8-7-15-17-20-28-5-11-8-22-8-34 0-4 1-8 2-12 1-4 3-8 4-12 2-4 5-8 8-13 4-5 7-10 10-14 3-4 7-9 13-15 5-6 10-11 13-15 4-4 9-10 16-17 7-7 13-12 17-16 4-4 10-10 18-18 14-14 25-24 32-32 8-8 18-18 31-31 13-14 24-26 34-38 10 12 22 24 34 38 13 13 23 24 31 31 7 7 18 18 32 33 8 7 14 13 18 17 4 4 10 9 17 16 7 7 12 13 16 17 3 4 8 9 13 15 6 6 10 11 13 15 3 4 6 9 10 14 3 5 6 9 8 13 1 4 3 8 4 12 1 4 2 8 2 12 0 12-3 23-8 34-5 11-11 21-20 28-8 8-17 14-27 18-10 5-20 7-31 7z"/>
<glyph glyph-name="glyphicons-regular-1-41" unicode="&#80;" d="M555 256l-86 0 0-256-149 0 0 171-107 0 0-171-149 0 0 256-85 0 288 286 0-1 74-73 0 65 86 0 0-150z"/>
<glyph glyph-name="glyphicons-regular-1-42" unicode="&#81;" d="M243 528c-2-13-1-28 1-44 3-16 7-32 12-48 5-15 11-31 19-46 7-16 15-29 23-41 9-12 17-22 26-30 8-8 17-13 24-14 12-2 19 4 18 18 0 18-10 50-31 94 18-8 34-18 49-29 14-12 27-23 37-36 10-13 19-26 26-40 8-15 13-29 17-44 4-14 7-29 8-45 2-15 2-30 1-45-1-15-3-29-7-44-4-18-9-34-16-48-7-15-15-27-24-37-9-10-19-18-30-26-12-7-24-12-37-16-13-4-27-7-42-8-13-2-20 1-21 8 0 8 3 18 11 32 2 6 4 11 6 15 1 3 3 8 5 14 2 6 4 12 6 17 1 6 2 12 3 17 2 16-1 34-10 55-8 21-19 40-33 57 0-7 0-16-1-26-1-11-3-22-5-34-3-12-6-25-10-37-4-13-9-25-15-37-5-12-12-23-20-33-7-10-15-19-25-26-9-7-19-12-30-15-11-3-23-3-36 0-48 18-77 57-86 117-4 31-4 57 0 80 9 48 36 86 81 113-1-3-2-6-4-12-2-5-4-9-5-12-1-3-2-7-4-12-2-6-3-10-4-14-1-3-2-7-3-12-1-5-1-10-1-13 0-3 0-7 1-11 0-4 1-8 3-10 2-3 4-6 6-8 3-2 6-4 10-5 4-2 9-2 14-3 20 0 33 7 37 24 4 13 3 36-3 69-1 7-3 18-5 32-4 17-6 30-7 39-2 13-3 26-1 39 1 12 4 24 8 34 4 11 9 21 14 30 5 9 11 17 17 24 6 7 11 13 16 18 5 5 9 9 12 11z"/>
<glyph glyph-name="glyphicons-regular-1-43" unicode="&#82;" d="M43 491l85 0c6 0 11-2 15-7 4-4 6-9 6-15l0-85-128 0 0 85c0 6 2 11 7 15 4 5 9 7 15 7z m320 0l85 0c6 0 11-2 15-7 4-4 6-9 6-15l0-85-128 0 0 85c0 6 2 11 7 15 4 5 9 7 15 7z m106-150l0-106c0-33-5-64-17-93-11-30-27-54-47-75-19-21-43-37-71-49-27-12-56-18-87-18l-3 0c-25 0-49 4-71 11-23 8-44 19-62 33-18 14-34 31-47 50-14 19-24 41-32 65-7 24-11 49-11 76l0 106 128 0 0-106c0-13 2-26 6-39 4-12 10-23 17-34 8-10 18-18 30-25 13-6 27-9 42-9l3 0c12 0 24 2 34 6 11 4 20 10 27 17 7 7 13 15 19 24 5 9 8 19 11 29 2 10 3 21 3 31l0 106z"/>
<glyph glyph-name="glyphicons-regular-1-44" unicode="&#83;" d="M139 491c20 0 38-5 53-13 14-9 25-21 32-35 7-14 11-30 11-48l0-64c0-21-7-37-22-47l0-81c8-3 16-7 27-12 10-5 20-10 29-15 10-5 20-11 31-17 12-6 21-11 28-15 7-4 14-9 22-13 8-5 12-7 13-7 8-5 14-11 17-16 3-6 4-14 4-26l0-50c0-3-1-6-3-8-2-2-5-3-8-3l-469 0c-3 0-5 1-7 3-3 2-4 5-4 8l0 50c0 12 2 20 5 26 3 5 8 11 17 16 71 40 120 67 149 79l0 80c-14 11-21 27-21 48l0 64c0 18 3 34 10 48 7 14 18 26 33 35 14 8 32 13 53 13z m259-64c12 0 24-3 35-8 10-5 19-12 26-20 7-8 13-17 17-27 4-9 6-19 6-29 0-23 1-39 4-50 3-11 8-22 17-32 3-3 6-6 9-10 4-3 7-6 9-9 3-2 5-5 8-7 2-3 4-6 5-8 1-2 1-4 1-7 0-2-2-4-4-6-3-4-7-8-12-12-5-3-11-7-18-11-6-4-15-7-24-10-9-2-19-4-29-5l0-42c21-9 42-19 63-29 22-10 36-17 43-21 7-4 13-9 16-13 4-5 6-11 6-18l0-21c0-3-1-6-3-8-2-2-4-3-7-3l-161 0 0 70c0 8 0 14-1 19-1 6-3 11-5 16-3 5-7 10-11 14-5 4-11 9-19 13l-28 16 0 7c-11 1-23 3-34 7-10 6-20 11-30 17-6 4-11 9-16 14-2 2-3 4-3 6 0 3 1 5 2 7 1 2 3 5 5 8 3 2 6 5 8 7 3 3 6 6 10 9 3 4 6 7 9 10 9 10 15 21 17 32 3 11 5 28 5 50 0 10 2 20 6 29 4 10 9 19 16 27 7 8 16 15 27 20 11 5 22 8 35 8z"/>
<glyph glyph-name="glyphicons-regular-1-45" unicode="&#84;" d="M384 448l21 0 64-192 43-149 0-64-192 0 0 64 21 149-170 0 21-149 0-64-192 0 0 64 43 149 64 192 21 0 0 64 85-21 0-43 22 0 0 21 42 0 0-21 22 0 0 43 85 21z m-192-43l0-106 21 0 0 106z m107 0l0-106 21 0 0 106z m-107-405l-192 0 0 21 192 0z m320 0l-192 0 0 21 192 0z"/>
<glyph glyph-name="glyphicons-regular-1-46" unicode="&#85;" d="M555 0l-230 0-17 192-104 0-17-192-230 0 184 512 89 0-9-128 70 0-9 128 89 0z m-335 363l-12-128 96 0-12 128z"/>
<glyph glyph-name="glyphicons-regular-1-47" unicode="&#86;" d="M208 507c18 0 36-3 54-8 17-4 33-11 48-20 15-9 29-19 41-32 12-12 23-26 32-41 9-15 15-31 20-48 5-18 7-36 7-54 0-39-10-76-32-109l125-126c3-2 4-4 4-7 0-3-1-6-4-8l-45-45c-2-3-5-4-8-4-3 0-5 1-7 4l-126 125c-33-22-69-32-109-32-18 0-36 2-54 7-17 5-33 11-48 20-15 9-29 20-41 32-13 12-23 26-32 41-9 15-15 31-20 48-5 18-8 36-8 54 0 18 3 36 8 54 5 17 11 33 20 48 9 15 19 29 32 41 12 13 26 23 41 32 15 9 31 16 48 20 18 5 36 8 54 8z m0-65c-19 0-37-3-54-11-17-7-32-17-44-29-12-12-22-27-29-44-8-17-11-35-11-54 0-19 3-36 11-54 7-17 17-31 29-44 12-12 27-22 44-29 17-7 35-11 54-11 19 0 36 4 54 11 17 7 31 17 44 29 12 13 22 27 29 44 8 18 11 35 11 54 0 19-3 37-11 54-7 17-17 32-29 44-13 12-27 22-44 29-18 8-35 11-54 11z"/>
<glyph glyph-name="glyphicons-regular-1-48" unicode="&#87;" d="M349 491l187 0c7 0 12-1 17-2 4-1 8-2 11-3 3-1 6-4 9-7 3-3 5-6 6-9 2-2 4-7 7-12l24-53 41 0c3 0 5-1 7-3 2-2 3-4 3-7l0-22c0-3-1-5-3-7-2-2-4-3-7-3l-20 0 9-22 0-224c0-3-1-5-3-7-2-2-5-3-8-3l-42 0c-3 0-6 1-8 3-2 2-3 4-3 7l0 32-171 0 0 22 107 0 0 42-85 0 0 59c0 10-2 17-6 21-4 4-12 6-22 6l-20 0-32 85 220 0c-8 32-13 50-15 55-3 6-8 9-13 9l-193 0c-5 0-9-3-13-9 0-1-1-4-3-6-2-3-3-6-4-8l-2-3c-12 8-23 14-34 17l10 19c4 8 7 14 11 19 4 4 9 7 15 10 6 2 14 4 23 4z m-320-86l241 0c9 0 17-1 22-3 6-2 11-5 15-10 4-4 8-11 12-19l35-96 41 0c3 0 5-1 7-3 2-2 3-4 3-7l0-22c0-3-1-5-3-7-2-2-4-3-7-3l-20 0 9-22 0-245c0-3-1-6-3-8-2-2-5-3-8-3l-42 0c-3 0-6 1-8 3-2 2-3 5-3 8l0 32-341 0 0-32c0-3-1-6-3-8-2-2-5-3-8-3l-43 0c-3 0-5 1-7 3-2 2-3 5-3 8l0 245 9 22-20 0c-3 0-6 1-8 3-2 2-3 4-3 7l0 22c0 3 1 5 3 7 2 2 5 3 8 3l41 0 35 96c4 8 8 15 12 19 4 5 8 8 14 10 6 2 14 3 23 3z m243-42l-246 0c-5 0-9-3-13-9-1-2-3-12-8-28-4-16-8-32-11-47l-6-23 323 0c-15 60-23 93-26 98-3 6-7 9-13 9z m283-64l0-43 42 0 22 21 0 45z m-619-150l21-21 64 0 0 43-85 23z m341 22l0-43 64 0 22 21 0 45z m-213-86l0-42 171 0 0 42z"/>
<glyph glyph-name="glyphicons-regular-1-49" unicode="&#88;" d="M213 576l86 0c5 0 11-2 15-7 4-5 6-10 6-16l0-20 42 0c6 0 11-2 15-6 5-5 7-10 7-15l0-43c0-5-2-11-7-15-4-4-9-6-15-6l-212 0c-6 0-11 2-15 6-5 4-7 10-7 15l0 43c0 5 2 10 7 15 4 4 9 6 15 6l42 0 0 20c0 6 2 11 6 16 5 5 10 7 15 7z m192-64l54 0c3 0 5-1 7-3 2-2 3-5 3-8l0-490c0-3-1-6-3-8-2-2-4-3-7-3l-406 0c-3 0-5 1-7 3-2 2-3 5-3 8l0 490c0 3 1 6 3 8 2 2 4 3 7 3l54 0 0-64c0-6 2-11 6-15 4-4 9-6 15-6l256 0c6 0 11 2 15 6 4 4 6 9 6 15z m-277-128l0-21 277 0 0 21z m-21-43l0-21 298 0 0 21z m0-42l0-22 213 0 0 22z m21-43l0-21 277 0 0 21z m-21-43l0-21 298 0 0 21z m0-42l0-22 298 0 0 22z m0-43l0-21 298 0 0 21z m0-43l0-21 106 0 0 21z"/>
<glyph glyph-name="glyphicons-regular-1-50" unicode="&#89;" d="M64 533l384 0c6 0 12-2 18-5 6-4 10-9 13-14l14-28c12-4 23-9 34-13 10-4 21-9 33-15 11-6 20-11 27-17 7-5 10-10 10-14l0-86c0-5-2-11-6-15-4-4-9-6-15-6l-21 0c-6 0-11 2-15 6-5 4-7 10-7 15l0 86c0 4-7 10-21 18l0-434c0-3-1-6-3-8-2-2-5-3-8-3l-42 0c-3 0-6 1-8 3-2 2-3 5-3 8l0 32-384 0 0-32c0-3-1-6-3-8-2-2-5-3-8-3l-42 0c-3 0-6 1-8 3-2 2-3 5-3 8l0 434c-14-8-21-14-21-18l0-86c0-6-2-11-6-15-4-4-8-6-14-6l-22 0c-5 0-11 2-15 6-5 4-7 10-7 15l0 86c0 4 3 9 10 14 7 6 16 11 27 17 11 5 22 10 33 15 11 4 22 9 34 13l14 28c3 5 7 10 13 14 6 3 12 5 18 5z m395-85l-406 0c-3 0-5-1-7-3-2-2-3-5-3-8l0-207c0-3 1-6 3-8 2-3 4-5 7-6 2-1 4-2 8-3 3-1 11-3 24-6 13-3 26-6 41-8 14-2 33-5 57-6 23-2 48-3 73-3 25 0 50 1 73 2 23 2 42 4 58 7 15 3 28 5 39 8 12 2 20 4 26 6l7 3c3 1 5 3 7 6 2 2 3 5 3 8l0 207c0 3-1 6-3 8-2 2-4 3-7 3z m-438-322l22-19 64 0 0 42-86 22z m384 23l0-42 64 0 22 19 0 45z m-213-42l0-43 149 0 0 43z"/>
<glyph glyph-name="glyphicons-regular-1-51" unicode="&#90;" d="M62 539l30-30c-22-22-39-47-52-76-12-29-19-60-19-92 0-32 7-63 19-92 13-29 30-54 52-76l-30-30c-26 25-47 55-61 90-15 34-22 70-22 108 0 38 7 74 22 108 14 34 35 64 61 90z m358-30l30 30c26-26 47-56 61-90 15-34 22-70 22-108 0-38-7-74-22-108-14-35-35-65-61-90l-30 30c22 22 39 47 52 76 12 29 19 60 19 92 0 32-7 63-19 92-13 29-30 54-52 76z m-280-48l30-30c-12-12-22-25-29-41-7-15-10-32-10-49 0-18 3-34 10-50 7-15 17-29 29-40l-30-31c-16 16-29 34-38 55-9 21-14 43-14 66 0 23 5 45 14 66 9 20 22 39 38 54z m202-30l30 30c16-15 29-34 38-54 9-21 14-43 14-66 0-23-5-45-14-66-9-21-22-39-38-55l-30 31c12 11 22 25 29 40 7 16 10 32 10 50 0 17-3 34-10 49-7 16-17 29-29 41z m-86-37c15 0 27-5 38-15 10-11 16-23 16-38 0-12-4-22-11-31-7-10-15-16-26-20l26-290-86 0 26 290c-11 4-19 10-26 20-7 9-11 19-11 31 0 15 6 27 16 38 11 10 23 15 38 15z"/>
<glyph glyph-name="glyphicons-regular-1-52" unicode="&#48;" d="M181 555l150 0c3 0 5-1 7-3 2-2 3-5 3-8l0-21c0-3-1-6-3-8-2-2-4-3-7-3l-11 0 0-85 85 0c18 0 33-7 46-19 12-13 18-28 18-45l0-299c0-18-6-33-18-45-13-13-28-19-46-19l-21 0c0-6-2-11-6-15-4-4-10-6-15-6-6 0-11 2-15 6-5 4-7 9-7 15l-170 0c0-6-2-11-7-15-4-4-9-6-15-6-5 0-11 2-15 6-4 4-6 9-6 15l-21 0c-18 0-33 6-46 19-12 12-18 27-18 45l0 299c0 17 6 32 18 45 13 12 28 19 46 19l85 0 0 85-11 0c-3 0-5 1-7 3-2 2-3 5-3 8l0 21c0 3 1 6 3 8 2 2 4 3 7 3z m54-43l0-85 42 0 0 85z m170-128l-298 0c-6 0-11-2-15-6-5-4-7-10-7-15l0-43c0-6 2-11 7-15 4-4 9-6 15-6l298 0c6 0 11 2 15 6 5 4 7 9 7 15l0 43c0 5-2 11-7 15-4 4-9 6-15 6z m0-128l-298 0c-6 0-11-2-15-6-5-4-7-10-7-15l0-171c0-6 2-11 7-15 4-4 9-6 15-6l298 0c6 0 11 2 15 6 5 4 7 9 7 15l0 171c0 5-2 11-7 15-4 4-9 6-15 6z"/>
<glyph glyph-name="glyphicons-regular-1-53" unicode="&#49;" d="M278 517l51 16c3 1 5 1 7 0 2-1 3-3 2-6l31-143 24 0c3 0 6-2 8-6 3-4 4-8 4-13 0-2-4-6-12-11-8-5-18-10-30-14l0-35c0-22-7-37-22-48l0-53c8-3 16-7 27-12 10-5 20-10 29-15 10-5 20-11 31-17 12-6 21-12 28-16 7-4 14-8 22-12 8-5 13-7 13-8 8-4 14-10 17-15 3-6 4-15 4-26l0-51c0-3-1-6-3-8-2-2-5-3-8-3l-469 0c-3 0-6 1-8 3-2 2-3 5-3 8l0 51c0 11 2 20 5 26 3 5 8 11 17 15 72 42 122 68 149 80l0 53c-14 10-21 26-21 48l0 35c-12 4-22 9-31 14-8 5-12 9-12 11 0 5 2 9 4 13 2 4 5 6 8 6l24 0 31 140c0 4 0 6 2 7 2 2 5 2 8 0l51-14c3-1 6-2 11-2 4 0 8 1 11 2z"/>
<glyph glyph-name="glyphicons-regular-1-54" unicode="&#50;" d="M256 490c12 0 23-2 33-6 11-3 20-8 27-15 8-6 15-14 21-22 5-8 10-17 13-26 2-9 4-19 4-28 0-25 2-44 5-57 3-13 10-25 20-37 3-4 6-8 11-12 4-4 7-7 11-10 3-3 6-6 8-9 3-3 5-6 7-8 1-3 1-6 1-8 0-3-1-6-4-8-3-4-8-9-14-13-6-4-13-9-21-13-8-5-17-8-28-11-10-4-20-6-30-6l0-49c12-7 29-14 52-22 22-9 42-16 61-23 18-7 29-11 34-14 7-4 13-9 17-14 5-6 7-13 7-21l0-26c0-3-1-6-3-8-2-2-5-3-8-3l-448 0c-3 0-6 1-8 3-2 2-3 5-3 8l0 26c0 8 2 15 6 21 4 5 10 10 18 14 4 3 16 7 34 14 19 7 39 14 61 23 23 8 40 15 52 22l0 49c-10 0-20 2-30 6-11 3-20 6-28 11-8 4-15 9-21 13-6 4-11 9-14 13-3 2-4 5-4 8 0 2 0 5 1 8 2 2 4 5 7 8 2 3 5 6 8 9 4 3 7 6 11 10 5 4 8 8 11 12 10 12 17 24 20 37 3 13 5 32 5 57 0 9 2 19 4 28 3 9 8 18 13 26 6 8 13 16 21 22 7 7 16 12 27 15 10 4 21 6 33 6z"/>
<glyph glyph-name="glyphicons-regular-1-55" unicode="&#51;" d="M320 512l0-139c0-3 1-5 3-7 2-2 5-3 8-3l138 0 0-352c0-3-1-6-3-8-2-2-4-3-7-3l-384 0c-3 0-6 1-8 3-2 2-3 5-3 8l0 490c0 3 1 6 3 8 2 2 5 3 8 3z m149-128l-117 0c-3 0-6 1-8 3-2 2-3 5-3 8l0 117z"/>
<glyph glyph-name="glyphicons-regular-1-56" unicode="&#52;" d="M275 507c11-1 22-3 32-5 10-2 20-5 32-8 11-4 22-8 32-14 10-6 18-12 25-20 3-3 5-7 7-11 2-5 3-10 3-15 1-5 1-10 1-13 0-4 0-9 0-16 0-6 0-11 0-14 0-4-2-9-6-15 22-7 41-18 59-33 18-15 33-31 44-50 12-19 20-40 25-62 5-23 6-45 2-67-3-23-11-44-22-65-12-20-26-37-43-52-17-14-37-25-58-34-22-8-44-12-67-12-23 0-45 4-67 12-24-7-49-10-75-12-46-3-92 1-136 13-9 2-16 4-22 6-6 2-13 5-21 8-7 4-14 8-20 13-6 5-11 10-14 16-2 4-4 9-5 15-1 6-2 11-2 15 0 5 0 10 1 18 0 7 0 12 0 15 0 11 5 22 16 31-12 10-17 21-17 31l0 42c0 15 9 29 28 41-5 7-7 14-7 22l0 42c0 15 10 28 29 41-5 7-8 14-8 21l0 42c0 30 32 53 96 68 49 11 101 13 158 6z m-63-28c-42 0-78-4-108-14-1 0-4-1-8-2-4-2-7-3-9-3-2-1-5-2-9-3-4-2-7-3-10-5-2-1-4-3-7-4-3-2-5-4-7-7-1-2-3-5-3-7l0-1c1-3 2-5 3-7 2-2 4-4 6-6 3-2 5-4 8-5 2-2 5-3 9-5 4-1 7-2 9-3 2-1 5-2 10-3 5-2 8-3 9-3 1 0 4-1 9-2l6-2c28-6 58-10 92-10 35 0 71 5 106 14 0 0 3 1 6 2 4 1 6 1 8 2 1 0 3 1 7 2 3 1 6 2 8 2 1 1 4 2 6 4 3 1 6 2 7 3 2 2 4 3 6 5 2 2 3 3 4 5 2 2 3 5 3 7l0 1c-1 2-2 4-4 7-1 2-3 4-5 5-1 2-4 3-7 5-3 2-5 3-8 4-2 1-5 2-8 3-4 2-7 3-9 3-1 1-4 2-8 3-3 1-5 1-6 1-30 10-65 14-106 14z m-151-126c-4-2-8-4-12-6-4-3-7-5-9-7-2-2-4-4-6-6-1-2-2-3-3-4l-1-2c1-2 2-5 3-7 2-2 4-4 6-6 3-2 5-3 8-5 2-1 5-3 9-4 4-2 7-3 9-4 2-1 6-2 10-3 4-1 7-2 9-2 1-1 4-1 9-2 4-2 6-2 6-2 23-6 50-9 81-10 7 12 17 25 30 40-23 0-51 3-82 10-32 7-54 14-67 20z m279-10c-18 0-36-3-55-10-15-6-30-15-43-27-13-11-23-24-31-38-8-14-14-29-17-45-4-16-4-33-2-50 2-16 7-33 14-48 11-22 27-40 47-54 20-15 42-24 66-27 12-2 24-2 36-1 12 1 24 4 35 8 11 4 22 10 32 16 10 7 19 14 27 23 8 9 16 19 22 29 6 10 10 21 14 33 3 11 5 23 6 36 0 13-1 26-5 40-3 13-8 25-14 37-7 11-15 22-24 32-10 9-20 18-31 24-11 7-23 13-36 17-13 4-27 5-41 5z m-300-95c0 0-1-1-3-1-2-1-3-2-4-2-1 0-2-1-4-2-2-1-3-2-4-2-1-1-3-1-4-2-2-1-3-2-4-3-1-1-2-2-3-3-1-1-2-2-3-4-1-1-1-2-2-3l0-1 0-1c1-4 3-7 6-10 4-3 7-6 10-7 4-2 8-5 14-7 5-2 10-3 13-4 3-1 6-2 11-4l3 0c25-8 55-12 91-14-1 14 0 27 2 41-51 4-90 13-119 29z m-9-114l-3 3c-3-1-6-2-9-4-2-1-4-3-5-5-2-1-3-3-3-4-1-2-1-3-2-4l0-1c1-3 2-5 4-7 1-2 3-4 6-6 2-2 5-4 7-6 3-1 6-3 10-4 4-1 7-3 9-4 3-1 6-2 11-3 4-1 7-2 9-2 2-1 5-1 9-2 4-1 6-2 7-2 9-2 19-4 30-5 11-1 20-2 28-2 8-1 18-1 31-1 13 0 22-1 29-1-10 12-17 22-22 31-18 1-38 3-58 5-21 3-40 6-57 10-18 5-28 9-31 14z"/>
<glyph glyph-name="glyphicons-regular-1-57" unicode="&#53;" d="M448 533c6 0 11-2 15-6 4-4 6-9 6-15l0-85-426 0 0 85c0 6 2 11 6 15 4 4 9 6 15 6 6 0 11-2 15-6 4-4 6-9 6-15l22 0c0 6 2 11 6 15 4 4 9 6 15 6 6 0 11-2 15-6 4-4 6-9 6-15l22 0c0 6 2 11 6 15 4 4 9 6 15 6 6 0 11-2 15-6 4-4 6-9 6-15l22 0c0 6 2 11 6 15 4 4 9 6 15 6 6 0 11-2 15-6 4-4 6-9 6-15l22 0c0 6 2 11 6 15 4 4 9 6 15 6 6 0 11-2 15-6 4-4 6-9 6-15l22 0c0 6 2 11 6 15 4 4 9 6 15 6 6 0 11-2 15-6 4-4 6-9 6-15l22 0c0 6 2 11 6 15 4 4 9 6 15 6z m21-128l0-394c0-3-1-6-3-8-2-2-4-3-7-3l-406 0c-3 0-5 1-7 3-2 2-3 5-3 8l0 394z m-341-64l0-21 277 0 0 21z m-21-42l0-22 213 0 0 22z m21-43l0-21 277 0 0 21z m-21-43l0-21 298 0 0 21z m0-42l0-22 298 0 0 22z m0-43l0-21 298 0 0 21z m0-43l0-21 106 0 0 21z"/>
<glyph glyph-name="glyphicons-regular-1-58" unicode="&#54;" d="M469 400l0-16 64 0 0-21-64 0 0-64 64 0 0-22-64 0 0-64 64 0 0-21-64 0 0-64 64 0 0-21-64 0 0-64 64 0 0-43-533 0 0 533 43 0 0-64 64 0 0 64 21 0 0-64 64 0 0 64 21 0 0-64 64 0 0 64 22 0 0-64 64 0 0 64 21 0 0-64 64 0 0 64 21 0 0-11c10 7 21 11 32 11 15 0 28-5 38-16 10-10 16-23 16-37 0-15-6-28-16-38-10-11-23-16-38-16-4 0-8 1-13 2z m-362 48l-64 0 0-64 64 0z m85 0l-64 0 0-64 64 0z m256-22l0 22-64 0 0-64 36 0z m-235-42l64 0 0 64-64 0z m150 64l-64 0 0-64 64 0z m21-85l0-23c2-1 4-1 6-2l16 25z m-341-64l64 0 0 64-64 0z m149 64l-64 0 0-64 64 0z m21-64l64 0 0 64-64 0z m150 64l-64 0 0-64 22 0c2 10 7 19 15 26 7 8 16 13 27 15z m85 0l-4 0-28-44c5-6 8-13 9-20l23 0z m-74-22l0 0z m-161-64l0-32c3-3 6-5 8-8l91 40-13 0 0-6-22-9 0 15z m-106 0l-64 0 0-64 64 0z m21-64l1 0c3 13 9 23 19 31 9 8 21 12 33 12 4 0 7-1 11-1l0 22-64 0z m320 64l-22 0c-2-10-7-19-15-27-7-8-16-13-27-15l0-22 64 0z m-85-64l0 22c-12 3-21 8-29 17l-35-16 0-23z m-86 14l-30-14 30 0z m-170-35l-64 0 0-64 52 0 12 13z m21-26l8 9c-4 5-6 11-7 17l-1 0z m149 26l-43 0c-3-13-10-24-21-32l0-32 64 0z m86 0l-64 0 0-64 64 0z m85 0l-64 0 0-64 64 0z m-256-64l0 22c-4-1-7-1-11-1-7 0-14 1-21 4l-22-25z m-149-61l34 40-34 0z m149 40l-64 0 0-64 64 0z m85 0l-64 0 0-64 64 0z m86 0l-64 0 0-64 64 0z m85 0l-64 0 0-64 64 0z m-341-15l-43-49 43 0z"/>
<glyph glyph-name="glyphicons-regular-1-59" unicode="&#55;" d="M267 512l85 0c3 0 6-1 8-3 2-2 3-5 3-8l0-458 21 0 0 309c0 3 1 6 3 8 2 2 5 3 8 3l85 0c3 0 6-1 8-3 2-2 3-5 3-8l0-309 42 0 0-43-576 0 0 43 43 0 0 96c0 3 1 5 3 7 2 2 5 3 8 3l85 0c3 0 6-1 8-3 2-2 3-4 3-7l0-96 21 0 0 224c0 3 1 5 3 7 2 2 5 3 8 3l85 0c3 0 6-1 8-3 2-2 3-4 3-7l0-224 21 0 0 458c0 3 1 6 3 8 2 2 5 3 8 3z"/>
<glyph glyph-name="glyphicons-regular-1-60" unicode="&#56;" d="M257 493c32 0 63-6 92-18 29-12 54-29 76-52l-169-168 0-238c-21 0-42 3-62 9-20 6-39 13-57 24-17 10-33 22-48 37-14 15-27 31-37 48-11 17-19 36-25 57-6 21-8 42-8 63 0 22 2 43 8 64 6 20 14 39 24 56 10 18 23 34 38 48 14 15 30 28 48 38 17 10 36 18 57 24 21 5 42 8 63 8z m43-238l168 168c15-15 28-32 39-50 10-19 18-38 23-57 5-20 8-40 8-61 0-20-3-41-8-60-5-20-13-39-23-57-11-19-24-36-39-51z m-23-20l169-168c-23-23-49-40-78-52-28-12-58-18-91-18z"/>
<glyph glyph-name="glyphicons-regular-1-61" unicode="&#57;" d="M245 469c21 0 39-4 53-13 15-9 26-20 33-34 7-14 10-31 10-49l0-63c0-22-7-37-21-48l0-80c7-3 16-7 26-12 11-5 21-10 30-15 9-5 20-11 31-17 11-6 20-12 27-16 7-4 15-8 23-13 8-4 12-7 12-7 9-5 14-10 17-16 3-5 5-14 5-25l0-54c0-1-1-3-2-4-1-2-3-3-4-3l-479 0c-2 0-3 1-4 3-1 1-2 3-2 4l0 54c0 11 1 20 4 25 3 6 9 11 17 16 73 42 123 68 150 80l0 80c-15 10-22 26-22 48l0 63c0 18 4 35 11 49 7 14 18 25 32 34 15 9 33 13 53 13z m-202-64c10 0 20-1 28-5 9-3 15-8 20-14 5-6 9-13 12-21 2-8 4-17 4-26l0-38c0-5 0-8-1-9 0-2 0-5-1-8 0-3-1-5-3-7-1-1-4-3-6-5-3-2-7-3-11-4l0-57c11-3 24-8 40-16-29-14-68-35-116-63l-3-2c-11-6-19-12-24-20-6-7-10-15-12-25l-94 0c-1 0-2 1-3 2-1 1-1 2-1 3l0 37c0 8 2 13 5 17 3 4 8 8 14 12 1 0 5 3 15 9 10 6 19 11 28 16 8 5 19 11 32 17 13 6 24 10 34 13l0 56c-4 2-8 3-10 5-3 2-5 4-7 5-1 2-2 4-3 7-1 3-1 5-1 7 0 2 0 5 0 10l0 38c0 9 1 18 4 25 2 8 6 15 11 22 5 6 12 11 20 14 8 4 18 5 29 5z m405 0c11 0 20-1 29-5 8-3 15-8 20-14 5-6 9-13 11-21 3-8 4-17 4-26l0-38c0-5 0-8 0-9 0-2-1-5-1-8-1-3-2-5-4-7-1-1-3-3-6-5-3-2-6-3-10-4l0-57c9-3 21-7 34-13 13-6 23-12 32-17 9-5 18-10 28-16l14-9c7-4 12-8 15-12 3-4 5-9 5-17l0-37c0-1-1-2-2-3 0-1-1-2-2-2l-95 0c-2 10-6 18-11 25-6 8-13 14-24 20l-8 4c-47 28-84 48-111 61 15 8 28 13 39 16l0 56c-4 2-7 3-10 5-3 2-5 4-6 5-2 2-3 4-4 7 0 3-1 5-1 7 0 2 0 5 0 10l0 38c0 9 1 18 4 26 2 8 6 15 11 21 5 6 12 11 20 14 9 4 18 5 29 5z"/>
<glyph glyph-name="glyphicons-regular-1-62" unicode="&#33;" d="M160 533c7 0 14 0 21-1l128-19c3 0 5-1 7-4 1-2 2-5 1-7l-59-236c0-3-2-5-5-7-2-2-5-3-8-3l-32 0 0-235-21-21 0 213-7 43-7 0-7-43 0-21-22 0 0-21 22 0 0-22-22 0 0-21 22 0 0-21-22 0 0-22 22 0 0-21-22 0 0-21 22 0 0-22-22 0 0-21 22 0 0-21-1 0-23 0-40 42 0 235-32 0c-3 0-6 1-8 3-3 2-5 4-5 7l-59 236c-1 2 0 5 1 7 2 3 4 4 7 4l128 19c7 1 14 1 21 1z m0-44c-11 0-21-4-29-12-8-8-12-18-12-29 0-11 4-21 12-29 8-8 18-12 29-12 11 0 21 4 29 12 8 8 12 18 12 29 0 11-4 21-12 29-8 8-18 12-29 12z m189-2l64-180c2-3 2-6 1-9-2-3-3-6-6-7l-28-19 130-198-10-58-19-13-59 12-130 197-23-16c-4-3-9-3-13 0l0 26c10 0 19 4 26 11 6 6 11 15 14 25z"/>
<glyph glyph-name="glyphicons-regular-1-63" unicode="&#34;" d="M384 512l21 0c6 0 11-2 15-6 5-4 7-10 7-15l0-22 42 0c6 0 11-2 15-6 5-4 7-9 7-15l0-64-491 0 0 64c0 6 2 11 6 15 4 4 10 6 15 6l43 0 0 22c0 5 2 11 6 15 4 4 10 6 15 6l22 0c5 0 11-2 15-6 4-4 6-10 6-15l0-22 235 0 0 22c0 5 2 11 6 15 4 4 9 6 15 6z m107-149l0-342c0-5-2-11-7-15-4-4-9-6-15-6l-448 0c-5 0-11 2-15 6-4 4-6 10-6 15l0 342z m-448-86l0-64 64 0 0 64z m85 0l0-64 64 0 0 64z m85 0l0-64 64 0 0 64z m86 0l0-64 64 0 0 64z m85 0l0-64 64 0 0 64z m-341-85l0-64 64 0 0 64z m85 0l0-64 64 0 0 64z m85 0l0-64 64 0 0 64z m86 0l0-64 64 0 0 64z m85 0l0-64 64 0 0 64z m-341-85l0-64 64 0 0 64z m85 0l0-64 64 0 0 64z m85 0l0-64 64 0 0 64z m86 0l0-64 64 0 0 64z m85 0l0-64 64 0 0 64z"/>
<glyph glyph-name="glyphicons-regular-1-64" unicode="&#35;" d="M-15 539l30-30c-12-13-21-27-27-43-6-16-9-32-9-50 0-20 4-39 12-57 8-18 20-34 35-47l-30-30c-19 17-34 37-44 60-11 23-16 48-16 74 0 23 4 46 13 67 8 21 20 40 36 56z m235-30l30 30c15-16 27-35 36-56 8-21 13-44 13-67 0-26-6-51-16-74-11-23-25-43-44-60l-30 30c15 13 26 29 35 47 8 18 12 37 12 57 0 18-3 34-9 50-7 16-16 30-27 43z m-165-39l30-31c-5-7-8-15-8-23 0-7 2-13 5-19 3-6 8-11 14-15l-31-30c-9 8-17 17-22 28-6 11-8 23-8 36 0 20 6 38 20 54z m95-31l30 31c14-16 20-34 20-54 0-13-2-25-8-36-6-11-13-20-23-28l-30 30c6 4 10 9 14 15 3 6 5 12 5 19 0 9-3 16-8 23z m-33-2c4 0 6-1 8-3 2-1 3-3 3-5l0-2 0-86 21-85 0-107 342 0c5 0 11-2 15-6 4-4 6-9 6-15l0-64c0-12-4-22-13-30-8-8-18-13-30-13l0-21-426 0 0 21c-12 0-22 5-30 13-9 8-13 18-13 30l0 64c0 6 2 11 6 15 4 4 10 6 15 6l64 0 0 107 22 85 0 86c0 6 3 10 10 10z m96-330l0-22 22 0 0 22z m43 0l0-22 21 0 0 22z m43 0l0-22 21 0 0 22z m42 0l0-22 22 0 0 22z m64 0l0-43 43 0 0 43z"/>
<glyph glyph-name="glyphicons-regular-1-65" unicode="&#36;" d="M373 512c22 0 41-5 59-16 18-10 33-24 43-42 10-19 16-38 16-59 0-25-7-48-22-68l0-267c0-16-6-30-17-42-12-12-27-18-43-18l-71 0c-17 0-31 6-43 18-12 12-18 26-18 42l0 89-21 0c0-5-2-11-6-15-4-4-10-6-15-6l-192 0c-6 0-11 2-15 6-5 4-7 10-7 15l0 150c0 5 2 11 7 15 4 4 9 6 15 6l192 0c5 0 11-2 15-6 4-4 6-10 6-15l21 0 0 28c-14 21-21 43-21 68 0 16 3 31 9 45 6 15 15 27 25 38 11 10 23 19 38 25 14 6 29 9 45 9z m0-43c-20 0-38-7-52-22-15-14-22-32-22-52 0-21 7-39 22-53 14-15 32-22 52-22 21 0 39 7 53 22 15 14 22 32 22 53 0 20-7 38-22 52-14 15-32 22-53 22z m5-21c14-2 25-7 35-17 9-11 14-23 14-36 0-15-6-28-16-38-10-10-23-16-38-16-13 0-25 5-36 14-10 10-15 21-17 35 7-4 14-6 22-6 11 0 21 4 30 12 8 9 12 19 12 30 0 8-2 15-6 22z m-58-341l0-22 21 0 0 22z m43 0l0-22 21 0 0 22z m42 0l0-22 22 0 0 22z m-64-43l0-21 22 0 0 21z m43 0l0-21 21 0 0 21z"/>
<glyph glyph-name="glyphicons-regular-1-66" unicode="&#37;" d="M368 205l62-189-164 117-163-118 63 189-166 116 204 0 63 192 1 0 62-192 201 0z m-19-79l-31 95 81 56-100 0-32 98-32-98-102 0 83-57-31-93 81 59z m-246-111l0 0 0 0z"/>
<glyph glyph-name="glyphicons-regular-1-67" unicode="&#38;" d="M368 205l62-189-164 117-163-118 63 189-166 116 204 0 63 192 1 0 62-192 201 0z m-265-190l0 0 0 0z"/>
<glyph glyph-name="glyphicons-regular-1-68" unicode="&#39;" d="M398 256l46 46c12 12 20 26 23 42 4 16 3 32-2 49-5 16-14 31-27 44l-35 35c-13 12-27 21-43 26-16 4-32 5-48 1-16-4-30-12-42-24l-112-112c-12-11-19-25-23-41-4-16-4-32 1-48 4-17 13-31 25-43l1-1 60-60 45 46-60 59 0 1c-4 4-7 8-9 13-2 5-2 10-2 15 1 5 4 10 8 14l112 112c4 4 9 7 14 7 5 1 10 0 15-2 5-2 9-5 13-9l35-35c4-4 7-8 9-14 3-5 4-10 3-16 0-5-3-10-6-14l-34-33c16-17 27-36 33-58z m-116 95l58-57c13-14 22-28 27-45 5-16 6-32 2-49-4-16-11-30-23-41l-112-112c-12-12-26-20-42-24-16-3-33-3-49 2-17 6-32 14-44 27l-35 35c-13 13-22 27-26 43-5 16-5 32-1 48 3 16 11 30 23 42l45 45c6-22 18-41 34-57l-33-33c-5-4-7-9-8-14-1-6 0-11 2-16 2-4 5-9 9-13l35-35c4-4 9-7 14-9 5-2 11-3 16-3 6 1 11 3 15 7l111 112c4 4 6 8 7 14 0 5-1 11-3 16-2 5-5 10-9 14l-58 58 45 45z"/>
<glyph glyph-name="glyphicons-regular-1-69" unicode="&#40;" d="M263 436c23 0 45-3 66-7 22-4 42-10 59-17 18-8 35-16 51-26 16-9 31-19 43-30 13-10 25-21 35-31 11-11 21-21 28-30 8-10 14-18 20-25 5-8 9-14 12-18l4-6-6-6c0 0-5-5-15-15-10-9-19-16-25-21-6-5-16-13-32-25-15-12-28-21-39-26-11-6-25-15-44-25-19-11-36-18-49-22-14-3-32-8-53-14-21-6-39-8-55-6-15 3-33 4-54 6-21 1-39 6-53 14-14 9-30 16-49 22-18 5-33 14-44 25-12 11-25 20-39 26-15 6-26 15-33 25-7 10-15 18-24 21-9 4-14 9-15 15l-6 6c1 1 2 3 4 6 2 3 6 9 12 17 6 9 13 18 20 26 7 8 16 18 27 30 12 11 24 22 36 31 12 10 26 20 43 30 16 10 33 19 51 26 17 7 37 12 58 17 22 4 44 7 66 7z m49-89c11-8 20-18 27-31 6-12 10-25 10-40 0-15-4-30-12-43-7-13-18-23-31-31-13-7-27-11-43-11-15 0-29 4-43 11-13 8-23 18-31 31-7 13-11 28-11 43 0 15 3 28 10 40 7 13 16 23 27 31-22-4-44-10-68-18-7-17-11-35-11-53 0-17 3-34 10-49 7-16 16-30 27-41 11-12 25-21 41-27 16-7 32-10 49-10 18 0 34 3 50 10 16 6 29 15 41 27 11 11 20 25 27 41 7 15 10 32 10 49 0 19-4 37-12 54-23 8-45 13-67 17z m120-39c2-11 3-21 3-32 0-23-5-45-14-66-9-21-21-40-37-56 16 7 32 14 47 23 16 8 30 17 43 25 12 9 23 16 32 23 9 8 17 14 24 21-10 9-24 19-41 30-17 12-37 23-57 32z m-337-2c-19-10-36-20-51-30-15-11-28-21-38-30 7-7 15-13 23-20 8-7 18-14 29-22 12-9 25-17 39-25 15-8 29-16 44-22-16 15-28 34-36 54-9 21-13 42-13 65 0 10 1 20 3 30z m126-35l-17-18c5-13 14-24 25-31l16 16c-6 3-12 7-16 13-4 6-7 12-8 20z"/>
<glyph glyph-name="glyphicons-regular-1-70" unicode="&#41;" d="M238 0l-54 0 36 92c-16 3-32 6-49 11-16 6-32 11-46 18-15 7-29 14-43 22-14 8-27 16-38 24-12 8-23 16-34 24-10 8-19 16-27 23-8 7-15 13-21 18-6 5-10 10-13 13l-5 4c1 2 2 4 4 7 2 3 6 8 12 17 6 9 13 17 20 26 7 8 16 18 27 29 12 11 24 22 36 32 12 10 26 20 43 30 16 10 33 18 51 25 17 7 37 13 58 17 22 5 44 7 67 7 27 0 57-5 89-13l34 86 53 0z m149 303l37 94c14-7 27-16 41-25 13-10 24-19 35-28 10-10 19-19 28-28 9-9 16-18 22-26 6-8 11-15 16-21 4-6 8-11 10-14l3-5-8-8c0 0-7-6-20-19-14-12-25-22-33-27-8-6-23-16-43-30-20-15-37-25-51-31-13-5-32-14-57-24-24-11-45-17-62-17l33 85c16 12 28 26 37 44 10 18 14 37 14 57 0 7-1 15-2 23z m-174 48c-22-4-44-10-68-18-7-17-11-34-11-53 0-21 5-40 14-59 10-18 23-33 40-45 16-11 35-19 55-22l16 41c-15 0-29 4-42 12-12 8-23 18-30 31-7 13-11 27-11 42 0 15 3 28 10 40 7 13 16 23 27 31z m217-38c2-11 3-22 3-33 0-23-5-45-14-66-9-21-21-39-37-55 16 6 32 14 48 22 15 8 29 17 42 25 12 9 23 17 32 24 9 7 17 14 24 20-10 9-24 19-41 31-17 11-36 22-57 32z m-337-3c-18-9-35-20-51-30-15-11-28-21-38-30 7-7 15-13 23-20 8-6 18-14 29-22 12-9 25-17 39-25 15-8 29-16 44-22-15 16-27 34-36 54-8 21-13 43-13 65 0 10 1 20 3 30z m127-35l-18-18c6-13 14-23 25-31l16 16c-6 3-12 7-16 13-4 6-6 13-7 20z"/>
<glyph glyph-name="glyphicons-regular-1-71" unicode="&#42;" d="M-17 450l90 77c7 6 15 8 24 7 10-1 17-5 23-12l31-37c-29-11-55-27-79-47-24-21-44-44-61-71l-32 38c-5 7-8 14-7 23 1 9 5 17 11 22z m457 77l90-76c7-5 11-13 12-22 1-9-1-17-7-23l-33-40c-17 26-37 50-60 70-24 21-51 37-80 48l31 38c6 7 13 11 23 12 9 1 17-2 24-7z m-184-58c21 0 42-2 62-8 20-6 39-14 56-24 18-10 33-22 48-36 14-15 27-31 37-48 10-17 18-36 23-56 6-20 9-41 9-62 0-22-3-42-9-63-5-20-13-39-23-56-10-17-23-33-37-47-15-15-30-27-48-37-17-10-36-18-56-24-20-5-41-8-62-8-21 0-42 3-62 8-20 6-39 14-56 24-18 10-33 22-48 37-14 14-27 30-37 47-10 17-18 36-23 56-6 21-9 41-9 63 0 21 3 42 9 62 5 20 13 39 23 56 10 17 23 33 37 48 15 14 30 26 48 36 17 10 36 18 56 24 20 6 41 8 62 8z m0-64c-23 0-45-4-66-13-21-9-40-21-55-37-15-15-27-33-36-54-9-21-14-43-14-66 0-24 5-46 14-67 9-21 21-39 36-54 15-15 34-27 55-36 21-9 43-14 66-14 23 0 45 5 66 14 21 9 40 21 55 36 15 15 27 33 36 54 9 21 14 43 14 67 0 23-5 45-14 66-9 21-21 39-36 54-15 16-34 28-55 37-21 9-43 13-66 13z m-11-42l21 0c3 0 6-1 8-4 2-2 3-4 3-7l0-80c6-5 11-10 16-16 4-7 6-14 6-21 0-12-4-22-13-31-8-8-18-12-30-12-8 0-15 2-21 6-7 4-12 9-16 15l-38 0c-3 0-5 1-7 3-2 2-3 5-3 8l0 20c0 3 1 6 3 8 2 3 4 4 7 4l38 0c0 2 1 4 2 5 1 2 2 3 3 4 1 1 2 2 3 3 1 0 2 1 4 2 2 1 3 2 4 2l0 80c0 3 1 5 3 7 2 3 4 4 7 4z"/>
<glyph glyph-name="glyphicons-regular-1-72" unicode="&#43;" d="M256 512c23 0 46-3 68-9 22-6 42-15 61-26 19-11 36-24 52-40 16-16 29-33 40-52 11-19 20-39 26-61 6-22 9-45 9-68 0-23-3-46-9-68-6-22-15-42-26-61-11-19-24-36-40-52-16-16-33-29-52-40-19-11-39-20-61-26-22-6-45-9-68-9-23 0-46 3-68 9-22 6-42 15-61 26-19 11-36 24-52 40-16 16-29 33-40 52-11 19-20 39-26 61-6 22-9 45-9 68 0 23 3 46 9 68 6 22 15 42 26 61 11 19 24 36 40 52 16 16 33 29 52 40 19 11 39 20 61 26 22 6 45 9 68 9z m0-64c-26 0-51-5-75-15-23-10-44-24-61-41-17-17-31-38-41-61-10-24-15-49-15-75 0-26 5-51 15-75 10-23 24-44 41-61 17-17 38-31 61-41 24-10 49-15 75-15 26 0 51 5 75 15 23 10 44 24 61 41 17 17 31 38 41 61 10 24 15 49 15 75 0 26-5 51-15 75-10 23-24 44-41 61-17 17-38 31-61 41-24 10-49 15-75 15z m96-82l15-15c2-2 3-5 3-8 0-3-1-5-3-7l-70-70c1-4 2-7 2-10 0-12-4-22-13-30-8-9-18-13-30-13-7 0-14 2-21 6-7 5-12 10-16 16l-59 0c-3 0-5 1-7 3-3 2-4 5-4 8l0 20c0 3 1 6 4 8 2 2 4 3 7 3l59 0c4 6 9 11 16 16 7 4 14 6 21 6 3 0 7-1 12-2l69 69c2 2 5 3 8 3 3 0 5-1 7-3z"/>
<glyph glyph-name="glyphicons-regular-1-73" unicode="&#44;" d="M224 576l64 0c3 0 5-1 7-3 3-3 4-5 4-8l0-53c-12 1-26 2-43 2-17 0-31-1-43-2l0 53c0 3 1 5 4 8 2 2 4 3 7 3z m250-97l30-30c2-2 3-5 3-8 0-2-1-5-3-7l-32-32c-6 9-13 17-21 24-7 8-15 15-24 22l32 31c2 2 4 3 7 3 3 0 6-1 8-3z m-218-7c21 0 42-3 62-8 20-6 39-14 56-24 18-10 33-22 48-37 14-14 27-30 37-47 10-17 18-36 23-56 6-20 9-41 9-62 0-22-3-42-9-63-5-20-13-39-23-56-10-17-23-33-37-47-15-15-30-27-48-37-17-10-36-18-56-24-20-5-41-8-62-8-21 0-42 3-62 8-20 6-39 14-56 24-18 10-33 22-48 37-14 14-27 30-37 47-10 17-18 36-23 56-6 21-9 41-9 63 0 21 3 42 9 62 5 20 13 39 23 56 10 17 23 33 37 47 15 15 30 27 48 37 17 10 36 18 56 24 20 5 41 8 62 8z m0-64c-23 0-45-4-66-13-21-9-40-21-55-37-15-15-27-33-36-54-9-21-14-43-14-66 0-24 5-46 14-67 9-21 21-39 36-54 15-15 34-28 55-37 21-9 43-13 66-13 23 0 45 4 66 13 21 9 40 22 55 37 15 15 27 33 36 54 9 21 14 43 14 67 0 23-5 45-14 66-9 21-21 39-36 54-15 16-34 28-55 37-21 9-43 13-66 13z m-11-45l22 0c3 0 5-1 7-3 2-2 3-5 3-8l0-78c7-3 12-9 16-15 4-7 6-14 6-21 0-8-2-15-6-22-4-6-9-11-16-15l0-19c0-3-1-6-3-8-2-2-4-3-7-3l-22 0c-3 0-5 1-7 3-2 2-3 5-3 8l0 19c-7 4-12 9-16 15-4 7-6 14-6 22 0 7 2 14 6 21 4 6 9 12 16 15l0 78c0 3 1 6 3 8 2 2 4 3 7 3z"/>
<glyph glyph-name="glyphicons-regular-1-74" unicode="&#45;" d="M405 576l0-86c-1 0-5 0-10 0-6 0-9 0-11 0l0 86z m-126-29l65-65c-8-2-15-5-22-9l-58 58z m246-16l-58-58c-7 4-14 7-21 9l64 65z m-130-83c19 0 37-4 55-11 17-8 32-19 45-32 11-1 20-6 27-14 8-8 11-17 11-28l0-235c0-12-4-22-12-30-9-8-19-13-30-13l0-21-32-21-32 21 0 21-342 0 0-21-32-21-32 21 0 21c-11 0-21 5-30 13-8 8-12 18-12 30l0 235c0 11 4 21 12 30 8 8 19 12 30 12l274 0c13 14 28 24 45 32 17 7 35 11 55 11z m-182 0l73 0c-7-7-13-14-19-21l-54 0z m363-21l-54 0c-5 7-12 14-19 21l73 0z m-181-24c-13 0-25-2-37-7-12-5-21-12-30-20-8-9-15-19-20-30-5-12-7-24-7-37 0-13 2-25 7-36 5-12 12-22 20-30 9-8 18-15 30-20 12-5 24-8 37-8 12 0 25 3 36 8 12 5 22 12 30 20 8 8 15 18 20 30 5 11 8 23 8 36 0 13-3 25-8 37-5 11-12 21-20 30-8 8-18 15-30 20-11 5-24 7-36 7z m0-21c13 0 25-3 36-10 11-6 20-15 26-26 7-11 10-24 10-37 0-13-3-25-10-36-6-11-15-20-26-26-11-7-23-10-36-10-13 0-26 3-37 10-11 6-20 15-26 26-7 11-10 23-10 36 0 9 2 18 5 26 3-4 6-7 11-9 4-3 9-4 14-4 8 0 15 3 21 9 6 6 9 13 9 21 0 5-1 10-4 14-2 5-5 8-9 11 8 3 17 5 26 5z m-139-62l-192 0c-8 0-15-2-21-6-7-4-12-9-16-15l229 0z m-235-43l0-21 235 0 0 21z m0-42l0-22 235 0 0 22z m235-43l-229 0c4-7 9-12 16-16 6-3 13-5 21-5l192 0z"/>
<glyph glyph-name="glyphicons-regular-1-75" unicode="&#46;" d="M256 513c23 0 46-3 68-10 22-6 42-14 61-25 19-11 36-25 52-41 15-15 29-33 40-51 11-19 19-40 26-62 6-22 9-44 9-68 0-3 0-7-1-10 0-3 0-6 0-8-1-3-1-6-2-11-1-5-1-10-1-14l-65 0c0 4 1 8 2 14 1 5 1 9 2 11 0 2 0 5 0 8 1 3 1 7 1 10 0 18-3 35-7 51-5 17-11 32-19 46-9 15-19 28-31 39-11 12-24 22-38 31-14 8-30 14-46 19-17 5-34 7-51 7-18 0-35-2-51-7-17-5-32-11-46-19-14-9-27-19-39-30-12-12-22-25-30-39-8-14-15-30-19-46-5-17-7-34-7-51 0-18 2-35 7-51 4-17 11-32 19-46 8-14 18-27 30-39 12-12 25-22 39-30 14-8 29-15 46-19 16-5 34-7 51-7 21 0 39 2 55 7 15 5 31 13 48 23l-32 46c-2 2-3 4-2 6 1 1 3 2 6 2l146 0c3 0 5-1 7-3 1-2 1-4 0-7l-47-138c-1-2-2-4-4-4-2-1-3 0-5 3l-32 44-1-1c-20-14-43-24-68-31-25-8-49-11-71-11-24 0-48 3-71 9-22 6-43 15-62 26-19 11-36 24-51 40-15 16-28 33-39 52-11 18-19 39-25 61-5 22-8 44-8 68 0 23 3 45 9 68 6 22 15 42 26 61 11 19 24 36 40 52 16 15 33 29 52 40 18 11 39 19 61 25 22 7 45 10 68 10z m96-147l15-15c2-2 3-5 3-8 0-3-1-5-3-7l-70-70c1-4 2-7 2-10 0-12-4-22-13-30-8-9-18-13-30-13-7 0-14 2-21 6-7 5-12 10-16 16l-59 0c-3 0-5 1-7 3-3 2-4 5-4 8l0 20c0 3 1 6 4 8 2 2 4 3 7 3l59 0c4 6 9 11 16 16 7 4 14 6 21 6 3 0 7-1 12-2l69 69c2 2 5 3 8 3 3 0 5-1 7-3z"/>
<glyph glyph-name="glyphicons-regular-1-76" unicode="&#47;" d="M491 555l0-87c6-2 11-6 15-11 4-5 6-11 6-18l0-12 53 0c3 0 6-1 8-3 2-2 3-5 3-8l0-10c6 0 11-3 15-7 4-4 6-9 6-15l0-107c0-5-2-10-6-15-4-4-9-6-15-6l0-10c0-3-1-6-3-8-2-2-5-3-8-3l-53 0 0-245c0-3-1-6-3-8-2-2-5-3-8-3l-42 0c-3 0-6 1-8 3-2 2-3 5-3 8l0 32-384 0 0-32c0-3-1-6-3-8-2-2-5-3-8-3l-42 0c-3 0-6 1-8 3-2 2-3 5-3 8l0 245-53 0c-3 0-6 1-8 3-2 2-3 5-3 8l0 10c-6 0-11 2-15 6-4 5-6 10-6 15l0 107c0 6 2 11 6 15 4 4 9 7 15 7l0 10c0 3 1 6 3 8 2 2 5 3 8 3l53 0 0 12c0 7 2 13 6 18 4 5 9 9 15 11l0 87z m-491-149l-43 0c6 0 11-3 15-7 5-4 7-9 7-15l0-107c0-5-2-10-7-15-4-4-9-6-15-6l43 0z m459 0l-406 0c-3 0-5-2-7-4-2-2-3-4-3-7l0-101c0-3 1-6 3-8 2-3 4-5 7-6 2-1 4-2 8-3 3-1 11-3 24-6 13-3 26-6 41-8 14-2 33-5 57-6 23-2 48-3 73-3 25 0 50 1 73 3 23 1 42 3 58 6 15 3 28 5 39 8 12 2 20 4 25 6l8 3c3 1 5 3 7 6 2 2 3 5 3 8l0 101c0 3-1 5-3 7-2 2-4 4-7 4z m53 0l0-150 43 0c-6 0-11 2-15 6-5 5-7 10-7 15l0 107c0 6 2 11 7 15 4 4 9 7 15 7z m-491-259l22-19 85 0 0 43-107 21z m363 24l0-43 85 0 22 19 0 45z m-320-64l0-21 64 0 0 21z m320 0l0-21 64 0 0 21z m-192-21l0-43 128 0 0 43z"/>
<glyph glyph-name="glyphicons-regular-1-77" unicode="&#58;" d="M235 512l-150 0 36 35c1 1 1 2 2 3 1 0 2 1 3 2 1 0 1 0 2 1 0 0 1 1 2 1 1 0 2 0 2 0 0 0 1 0 3 1 1 0 2 0 3 0l139 0z m85 43l128 0c8 0 14-2 17-5 3-3 4-9 4-17l0-21-42-43 0 22c0 7-2 12-5 16-3 3-9 5-17 5l-128 0z m-256-64l149 0c-15-16-26-27-33-33-3-3-5-6-7-9-1-3-2-5-2-7 0-2 0-5 0-9l0-28-150 0 0 28c0 5 1 10 2 13 1 4 3 7 7 11z m330 0c7 0 11-4 11-12l0-31-42-43-150 0 0 28c0 4 0 7 1 9 0 2 1 4 2 7 2 2 4 5 7 9l33 33z m75-86l-42-42 0 85 42 43z m-64-64l-42-42-150 0 0 85 150 0 42 43z m-234-42l-150 0 0 85 150 0z m298 0l-42-43 0 85 42 43z m-64-64l-42-43-150 0 0 85 150 0 42 43z m-234-43l-150 0 0 85 150 0z m298 21l-42-42 0 64 42 42z m43-85l-21-21 0 21-22-21 0-22-42-42 0 21-22-21 0-22-21-21-85 0 0 21-64 0 0-21-86 0 0 21-64 0 0-21-106 0 0 85 405 0 128 128z m-107 21l-42-42-150 0 0 64 150 0 42 42z m-234-42l-150 0 0 64 150 0z"/>
<glyph glyph-name="glyphicons-regular-1-78" unicode="&#59;" d="M256 512c23 0 46-3 68-9 22-6 42-15 61-26 19-11 36-24 52-40 16-16 29-33 40-52 11-19 20-39 26-61 6-22 9-45 9-68 0-23-3-46-9-68-6-22-15-42-26-61-11-19-24-36-40-52-16-16-33-29-52-40-19-11-39-20-61-26-22-6-45-9-68-9-23 0-46 3-68 9-22 6-42 15-61 26-19 11-36 24-52 40-16 16-29 33-40 52-11 19-20 39-26 61-6 22-9 45-9 68 0 23 3 46 9 68 6 22 15 42 26 61 11 19 24 36 40 52 16 16 33 29 52 40 19 11 39 20 61 26 22 6 45 9 68 9z m0-64c-17 0-34-2-51-7-16-5-32-11-46-19-14-8-27-19-39-30-11-12-22-25-30-39-8-14-14-30-19-46-5-17-7-34-7-51 0-17 2-34 7-51 5-16 11-32 19-46 8-14 19-27 30-39 12-11 25-22 39-30 14-8 30-14 46-19 17-5 34-7 51-7 17 0 34 2 51 7 16 5 32 11 46 19 14 8 27 19 39 30 11 12 22 25 30 39 8 14 14 30 19 46 5 17 7 34 7 51 0 17-2 34-7 51-5 16-11 32-19 46-8 14-19 27-30 39-12 11-25 22-39 30-14 8-30 14-46 19-17 5-34 7-51 7z m-36-142l147 66c3 1 5 1 6 0 1-1 1-2-1-5l-66-147c-2-2-4-5-6-8-3-2-6-4-8-6l-147-66c-3-2-5-2-6-1-1 1-1 3 1 6l66 147c2 2 4 5 6 8 3 2 6 4 8 6z m54-32c-5 5-11 7-18 7-7 0-13-2-18-7-5-5-7-11-7-18 0-7 2-13 7-18 5-5 11-7 18-7 7 0 13 2 18 7 5 5 7 11 7 18 0 7-2 13-7 18z"/>
<glyph glyph-name="glyphicons-regular-1-79" unicode="&#60;" d="M459 277l-406 0 32 192 11 0c0 59 13 94 39 105 10 4 21 4 33 1 12-3 24-10 37-20l8 8 41-40-30-30-41 40 7 7c-9 7-18 11-26 14-8 2-15 2-20 0-9-4-15-13-20-27-4-15-7-34-7-58l310 0z m-182-64l0-88c25-5 46-16 62-31 16-15 24-32 24-51 0-16-6-30-16-43-10-13-25-24-43-31-18-8-37-12-59-12-21 0-40 4-59 12-18 7-32 18-42 31-11 13-16 27-16 43 0 19 8 36 24 51 16 15 36 26 61 31l0 88-170 0 0 43 426 0 0-43z m0-170c0-6-3-11-9-15-6-5-14-7-23-7-8 0-16 2-22 7-7 4-10 9-10 15 0-6 3-11 10-15 6-5 14-7 22-7 9 0 17 2 23 7 6 4 9 9 9 15z"/>
<glyph glyph-name="glyphicons-regular-1-80" unicode="&#61;" d="M446 498c16-7 30-17 43-30 12-12 21-25 28-40 7-14 11-29 14-46 2-16 2-33-1-49-3-16-8-31-15-47-8-15-18-29-30-41l-220-220c0-1-1-1-1-2-1 0-1-1-2-1 0 0 0 0-1-1 0 0-1-1-2-1 0 0-1 0-1 0-3 0-6 1-9 4-3 3-7 7-11 12-4 5-6 7-7 8-1 1-1 2-1 4 0 1 0 3 1 4l217 216c26 26 40 54 42 83 2 19-1 36-8 53-7 16-18 30-32 42-14 11-30 18-48 22-7 1-13 1-20 1-6 0-12 0-17-1-6-1-12-2-17-4-6-3-12-5-16-7-4-2-9-5-15-9-6-4-10-8-14-10-3-3-8-7-14-12-5-5-9-9-12-12-3-3-8-8-13-13l-148-148c-4-4-9-9-15-15-7-6-13-11-17-15-5-5-11-10-17-17-6-6-11-12-15-18-4-5-8-12-11-18-4-7-6-14-7-21-2-7-2-14-1-21 2-10 5-18 10-26 4-7 10-13 17-18 6-4 14-7 22-9 9-2 17-3 25-2 9 1 17 3 25 7 8 3 15 8 22 15l29 29c18 18 44 44 78 78 34 33 54 54 60 60l73 73c6 6 9 12 10 18 2 6 1 12-2 17-3 4-6 8-11 11-4 3-10 4-16 3-6-2-12-5-18-10-2-3-5-5-8-8-3-3-6-6-9-10-3-3-6-6-8-8-88-88-133-132-134-134-1-1-2-2-3-3-1-1-2-2-3-3-1-2-3-3-4-4-1-1-3-2-4-3-1-1-2-1-4-1-1 0-2 1-3 2l-22 22c-1 1-2 2-2 4 0 1 1 3 2 4 7 7 23 24 50 51 27 27 52 52 75 75 22 23 38 38 46 45 10 10 21 16 33 20 12 4 24 5 36 3 9-2 17-5 25-10 7-5 12-11 17-18 4-7 7-14 9-22 1-8 2-17 1-25-1-8-3-16-7-24-4-8-9-15-15-21l-29-29c-17-17-41-42-73-73-31-32-53-54-66-66-5-5-13-14-23-25-11-12-20-21-27-28-7-8-16-16-26-24-11-9-21-15-30-20-13-6-26-10-40-11-14-1-27 0-40 3-13 3-25 9-37 17-11 8-21 19-28 31-9 14-14 31-16 48-1 18 2 35 8 51 6 16 15 31 28 43l225 225c7 8 12 13 15 16 3 2 8 6 14 12 6 5 12 9 18 13 22 13 46 21 73 23 26 1 51-3 75-14z"/>
<glyph glyph-name="glyphicons-regular-1-81" unicode="&#62;" d="M235 512l42 0c6 0 11-2 15-6 5-4 7-10 7-15l0-171c0-6-2-11-7-15-4-4-9-6-15-6l-42 0c-6 0-11 2-15 6-5 4-7 9-7 15l0 171c0 5 2 11 7 15 4 4 9 6 15 6z m134-84c34-20 61-47 81-81 20-34 30-72 30-112 0-21-3-41-8-60-6-19-13-37-23-53-9-17-21-32-35-46-14-13-29-25-45-35-16-9-34-17-53-22-20-6-40-8-60-8-20 0-40 2-60 8-19 5-37 13-53 22-16 10-31 22-45 35-14 14-26 29-35 46-10 16-17 34-23 53-5 19-8 39-8 60 0 40 10 77 30 111 19 34 46 61 79 81 6 3 11 6 15 7 5 1 8 0 11-2 2-2 4-7 4-12l0-38c0-4-1-8-2-10-1-3-2-5-4-6-1-1-2-3-5-4-2-1-3-2-4-2-18-15-33-34-44-56-11-21-16-45-16-69 0-22 4-43 13-62 8-20 20-37 34-52 14-14 31-25 51-34 20-8 40-12 62-12 22 0 42 4 62 12 20 9 37 20 51 34 14 15 26 32 34 52 9 19 13 40 13 62 0 24-5 48-16 69-11 22-25 40-44 55 0 0-1 1-3 2-2 2-3 3-4 3-1 1-2 3-4 4-1 2-2 4-3 6 0 2-1 5-1 8l0 39c0 4 1 7 3 9 1 3 4 4 6 4 3 0 6-1 9-2 3-1 7-2 10-4z"/>
<glyph glyph-name="glyphicons-regular-1-82" unicode="&#63;" d="M257 525c28 0 54-5 78-15 24-10 45-23 61-41 17-17 31-38 40-62 10-24 14-50 14-78 0-9 0-17-1-25-2-8-3-15-5-21-1-6-4-13-7-20-3-7-6-13-8-17-3-5-6-10-11-17-4-7-7-11-10-15-2-3-6-7-11-14-4-6-7-10-10-13-2-3-5-7-9-13-4-6-6-10-8-14-2-4-4-8-7-14-3-5-5-11-6-16-1-4-2-10-3-16-1-7-1-13-1-20 0-14-4-26-10-35l0-29c0-2-2-4-6-8-3-3-7-6-10-9l-6-4 0-11c0-3-1-5-3-7-2-3-5-4-8-4l-106 0c-3 0-6 1-8 4-2 2-3 4-3 7l0 11c-1 1-3 2-6 4-2 2-5 5-9 9-4 4-6 6-6 8l0 25c-9 10-13 23-13 39 0 7-1 13-2 20-1 6-2 12-3 16-1 5-3 11-6 16-2 6-4 11-6 14-2 4-5 8-9 14-4 5-7 10-9 13-2 3-5 7-10 13-5 6-8 11-11 14-2 4-6 9-10 15-4 6-8 12-10 16-2 5-5 11-8 18-3 7-6 13-7 20-2 6-3 13-5 21-1 8-1 16-1 25 0 28 4 54 14 78 10 24 23 45 40 62 17 18 37 31 61 41 25 10 51 15 79 15l1-1z m107-299c0 1 1 2 3 4 4 6 8 11 11 15 2 3 5 8 9 13 4 6 7 12 9 16 2 5 4 10 7 16 2 6 3 12 4 18 1 7 2 14 2 21 0 22-4 43-12 62-8 19-18 35-32 48-13 13-29 24-48 32-19 7-38 11-60 11-22 0-42-4-61-11-19-8-36-18-49-32-13-13-24-29-31-48-8-19-12-40-12-62 0-8 1-15 2-21 1-7 2-13 5-20 2-6 4-11 6-16 2-5 5-10 9-16 4-6 8-11 10-15 3-3 7-8 12-15 5-6 8-11 11-14 2-4 6-9 10-15 5-7 8-12 11-17 2-5 5-11 8-18 3-7 5-14 7-20 2-7 3-14 4-23 2-8 2-16 2-25l110 0c0 9 0 17 2 25 1 9 2 16 4 23 1 6 4 13 7 20 3 7 6 13 8 18 3 5 6 10 10 17 5 6 8 11 11 15 2 3 6 8 11 14z"/>
<glyph glyph-name="glyphicons-regular-1-83" unicode="&#64;" d="M11 512l190 0c3 0 6-1 9-2 4-2 7-3 9-5l286-286c2-2 3-5 3-8 0-3-1-5-3-7l-197-196c-2-2-4-4-7-4-3 0-6 2-8 4l-285 285c-2 2-4 5-6 9-1 3-2 6-2 9l0 190c0 3 1 6 3 8 2 2 5 3 8 3z m126-76c-8 8-19 12-30 12-12 0-22-4-31-12-8-9-12-19-12-31 0-11 4-22 12-30 9-8 19-12 31-12 11 0 22 4 30 12 8 8 12 19 12 30 0 12-4 22-12 31z"/>
<glyph glyph-name="glyphicons-regular-1-84" unicode="&#91;" d="M-53 512l190 0c3 0 6-1 9-2 4-2 7-3 9-5l285-286c2-2 4-5 4-8 0-3-2-5-4-7l-196-196c-2-2-4-4-7-4-3 0-6 2-8 4l-286 285c-2 2-3 5-5 9-1 3-2 7-2 9l0 190c0 3 1 6 3 8 2 2 5 3 8 3z m243 0l64 0c3 0 7 0 12-1 6-1 9-2 10-3 5-2 9-6 14-11l271-271c4-4 6-9 6-14 0-6-2-11-6-16l-190-189c-2-2-4-3-7-2-3 0-6 1-8 4l-34 34 154 153c5 6 8 11 8 16 0 4-3 9-8 14z m-117-76c-8 8-19 12-30 12-12 0-22-4-30-13-9-8-13-18-13-30 0-11 4-21 13-30 8-8 18-12 30-12 11 0 22 4 30 12 8 8 12 19 12 30 0 12-4 22-12 31z"/>
<glyph glyph-name="glyphicons-regular-1-85" unicode="&#93;" d="M405 517c6 0 11-2 15-6 5-4 7-9 7-15l0-347 58 0c7 0 13-1 19-4 5-2 8-6 8-12l0-37-213 0 0 37c0 6 1 10 3 13 3 2 7 3 13 3l69 0 0 347c0 6 2 11 6 15 4 4 10 6 15 6z m-255-176c11 0 21-1 31-3 10-3 19-6 26-10 8-4 15-9 21-15 7-5 13-11 17-17 5-6 9-12 13-18 4-6 7-11 9-17 3-5 5-10 6-14 2-4 3-8 3-10l1-4 0-41-21 0 0-171-22-21-170 0-21 21 0 171-22 0 0 45 2 4c19 50 48 82 88 95 12 3 25 5 39 5z m0-28c-10 0-20-1-29-4-8-3-16-7-22-12-7-4-12-9-18-15-5-5-10-11-13-17-3-5-6-10-9-15-2-4-4-8-5-11l-1-4 193 0c-1 1-1 2-2 4 0 2-2 6-5 11-2 5-5 11-8 16-3 5-8 10-13 16-5 6-11 11-17 15-7 5-14 8-23 11-9 3-18 5-28 5z m383-313l-256 0 22 85 213 0z"/>
<glyph glyph-name="glyphicons-regular-1-86" unicode="&#94;" d="M555 384l0-288c0-3-1-6-3-8-2-2-5-3-8-3l-555 0c-3 0-5 1-7 3-2 2-3 5-3 8l0 288 21 0 0-213 21 0 0 213 22 0 0-128 21 0 0 128 21 0 0-128 22 0 0 128 21 0 0-128 21 0 0 128 22 0 0-128 21 0 0 128 21 0 0-213 22 0 0 213 21 0 0-128 21 0 0 128 22 0 0-128 21 0 0 128 21 0 0-128 22 0 0 128 21 0 0-128 21 0 0 128 22 0 0-213 21 0 0 213 21 0 0-128 22 0 0 128 21 0 0-128 21 0 0 128z"/>
<glyph glyph-name="glyphicons-regular-1-87" unicode="&#95;" d="M122 527c3-1 7-3 11-5 4-1 8-3 13-6 5-2 8-4 10-5l80-36c7-4 13-9 17-15 5 6 10 11 17 14l77 36c2 1 7 3 14 6 8 4 13 7 17 8 10 4 19 5 29 3 9-1 17-5 24-12 7-6 12-14 15-24 2-9 5-25 10-50 5-24 7-36 6-36l39 0c3 0 6-1 8-4 2-3 3-6 3-9l0-63c0-3-1-5-3-7-2-1-5-2-8-2l-32 0 0-64-170 0 0 149-86 0 0-149-170 0 0 64-32 0c-3 0-6 1-8 2-2 2-3 4-3 7l0 63c0 3 1 6 3 9 2 3 5 4 8 4l34 0c-1 0 1 13 6 38 5 25 8 41 10 49 4 13 11 23 23 30 12 7 25 8 38 5z m180-113l3-9 105 0c1 0 2 1 3 2 1 2 1 3 1 5l-14 62z m-191 59l-13-62c-1-1 0-2 0-4 1-1 2-2 3-2l106 0 3 9z m102-473l-170 0 0 171 170 0z m256 0l-170 0 0 171 170 0z"/>
<glyph glyph-name="glyphicons-regular-1-88" unicode="&#96;" d="M96 512l309 0c11 0 21-2 32-7 10-5 19-12 27-20 8-7 14-17 19-27 5-11 8-21 8-31l0-320-43-43 0 341c0 43-21 64-64 64l-262 0-42-42 261 0c18 0 33-7 46-19 12-13 18-28 18-45l0-299c0-18-6-33-18-45-13-13-28-19-46-19l-320 0 0 432z"/>
<glyph glyph-name="glyphicons-regular-1-89" unicode="&#123;" d="M117 512l299 0c3 0 6-1 8-3 2-2 3-5 3-8l0-482c0-3-1-6-2-7-2-2-3-2-5-2-2 0-3 1-5 2l-147 132-151-134c-2-2-4-3-7-2-2 1-3 2-3 5l0 488c0 3 1 6 3 8 2 2 4 3 7 3z"/>
<glyph glyph-name="glyphicons-regular-1-90" unicode="&#124;" d="M267 480c63 0 122-12 179-36 57-25 106-58 149-101l-43-43c-37 37-80 66-129 87-50 21-102 32-156 32-55 0-107-11-156-31-49-21-92-50-129-87l-43 43c43 42 92 76 149 100 56 24 116 36 179 36z m0-120c46 0 91-9 133-27 42-18 79-43 111-75l-46-45c-26 26-56 46-90 60-34 15-70 22-108 22-38 0-74-7-108-21-34-15-64-35-90-61l-46 46c32 32 69 56 111 74 42 18 86 27 133 27z m0-124c30 0 58-5 85-17 27-11 51-27 71-48l-41-41c-15 15-32 27-52 35-20 8-41 13-63 13-22 0-43-4-63-13-19-8-37-20-52-35l-41 42c20 20 44 36 71 47 26 12 55 17 85 17z m0-117c14 0 27-3 40-8 13-6 24-13 33-23l-72-73-74 74c9 9 20 16 33 22 13 5 26 8 40 8z"/>
<glyph glyph-name="glyphicons-regular-1-91" unicode="&#125;" d="M405 469l64 0c6 0 11-2 15-6 5-4 7-9 7-15 0-17 0-33-1-46 0-14 0-26-1-37-1-11-1-20-2-27-1-8-2-15-3-21-2-7-3-12-4-16-2-4-3-8-6-12-3-5-5-8-6-11-2-3-5-6-8-11-12-15-24-28-35-37-10-9-23-17-38-23-15-6-32-11-50-14-17-4-32-4-45 0-7-13-12-27-15-40l0-25c0-15 6-30 17-43l26 0 0-21 21 0 0-64-170 0 0 64 21 0 0 21 26 0c11 13 17 28 17 43l0 20c-3 14-10 28-20 44-23-1-45 1-66 7-21 6-40 16-58 29-18 13-33 29-44 49-4 7-8 14-11 22-3 9-5 18-7 28-2 10-3 19-4 27-2 9-2 19-3 32 0 12 0 22-1 30 0 7 0 18 0 32 0 6 2 11 7 15 4 4 9 6 15 6l64 0 0 43 298 0z m-300-198c6-5 10-9 14-11 4-3 9-6 15-9 6-4 13-7 21-9 8-2 18-4 28-5-8 10-14 18-19 24-4 6-10 14-16 23-7 10-12 19-17 28-4 8-8 17-12 26-6 15-9 28-10 38-2 10-2 24-2 43l0 8-44 0c0-13 0-25 0-36 0-10 0-21 1-32 2-11 3-21 6-31 3-9 7-19 13-29 5-10 13-19 22-28z m303 0c6 6 11 12 15 18 5 7 9 14 13 23 4 9 7 19 9 31 3 13 4 26 4 41 0 4 0 11-1 21 0 10 0 18 0 22l-43 0c0-3 0-9 0-16 1-8 1-13 0-15 0-2 0-6 0-12 0-6-1-10-2-13 0-3-1-7-2-12-2-5-3-9-5-14-2-4-5-9-7-15-4-7-8-14-12-21-4-6-9-13-14-20-5-7-9-13-13-17-3-5-8-11-15-19-6-8-11-14-14-17 20 1 36 5 50 10 14 6 26 14 37 25z"/>
<glyph glyph-name="glyphicons-regular-1-92" unicode="&#126;" d="M449 469l73-85-73-149-240 0 121-128 8 0c6 12 15 23 27 31 12 7 25 11 40 11 13 0 26-3 37-10 12-6 21-15 28-27 6-11 10-24 10-37 0-14-4-26-10-38-7-11-16-20-28-27-11-7-24-10-37-10-19 0-35 6-49 18-14 13-22 28-25 46l-21 0-80 86-57-43c5-11 8-21 8-32 0-14-3-26-10-38-7-11-16-20-27-27-12-6-24-10-38-10-13 0-26 4-37 10-11 7-21 16-27 27-7 12-10 24-10 38 0 13 3 26 10 37 6 12 16 21 27 27 11 7 24 10 37 10 14 0 27-3 38-11l56 43-50 54-54 0-23 92-68 18c-5 1-8 4-11 8-3 3-4 7-4 12 0 2 0 4 1 6 1 4 4 8 7 10 3 2 7 3 11 3 3 0 5 0 8-1l79-20 11-22 178 0-40 171 85 0z m-343-362c-9 0-16-3-23-9-6-7-9-14-9-23 0-9 3-17 9-23 7-7 14-10 23-10 9 0 17 3 23 10 7 6 10 14 10 23 0 9-3 16-10 23-6 6-14 9-23 9z m299 0c-9 0-16-3-23-10-6-6-9-14-9-22 0-9 3-17 9-23 7-6 14-9 23-9 9 0 16 3 23 9 6 6 9 14 9 23 0 8-3 16-9 22-7 7-14 10-23 10z"/>
<glyph glyph-name="glyphicons-regular-1-93" unicode="&#92;" d="M256 501c22 0 44-3 66-9 22-7 42-16 61-27 18-11 36-25 52-41 16-16 29-33 41-52 11-19 20-39 26-61 7-22 10-43 10-66l0-128c0-3-1-5-3-7-2-2-5-3-8-3l-21 0c-3 0-6 1-8 3-2 2-3 4-3 7l0 128c0 19-2 36-8 53-5 17-13 33-22 47-10 14-21 26-35 38-13 12-27 22-43 29-16 8-32 14-50 19-18 4-37 6-55 6-18 0-37-2-55-6-18-5-34-11-50-19-16-7-30-17-43-29-14-12-25-24-35-38-9-14-17-30-22-47-6-17-8-34-8-53l0-128c0-3-1-5-3-7-2-2-5-3-8-3l-21 0c-3 0-6 1-8 3-2 2-3 4-3 7l0 128c0 23 3 44 10 66 6 22 15 42 26 61 12 19 25 36 41 52 16 16 34 30 52 41 19 11 39 20 61 27 22 6 44 9 66 9z m-185-309l54 0c3 0 6-1 8-3 2-2 3-5 3-8 1-2 2-6 3-10 1-5 3-14 5-29 2-15 3-30 3-46 0-16-1-31-3-45-2-14-4-25-5-31l-3-9c0-3-1-6-3-8-2-2-5-3-8-3l-54 0c-5 0-7 4-7 11l0 170c0 7 2 11 7 11z m316 0l54 0c5 0 7-4 7-11l0-170c0-7-2-11-7-11l-54 0c-3 0-6 1-8 3-2 2-3 5-3 8-1 2-2 6-3 10-1 5-3 14-5 29-2 15-3 30-3 46 0 16 1 31 3 45 2 14 4 24 5 31l3 9c0 3 1 6 3 8 2 2 5 3 8 3z"/>
<glyph glyph-name="glyphicons-regular-1-94" unicode="&#57344;" d="M256 501c22 0 44-3 66-9 22-7 42-16 61-27 18-11 36-25 52-41 16-16 29-33 41-52 11-19 20-39 26-61 7-22 10-43 10-66l0-185c-1-1-1-3-2-5 0-2-2-5-4-10-2-5-4-10-7-14-3-5-7-11-13-17-5-7-11-13-18-18-6-6-15-12-25-18-10-6-21-12-33-16-12-5-26-10-42-14-16-4-34-7-52-9-3-7-9-13-16-18-7-4-14-6-23-6l-21 0c-12 0-22 4-30 12-9 8-13 19-13 30 0 12 4 22 13 31 8 8 18 12 30 12l21 0c7 0 14-2 20-5 6-3 11-8 15-13 18 2 34 5 49 8 15 4 28 8 38 13 10 4 19 9 28 15 8 6 15 11 20 15 4 5 9 10 12 15 4 5 6 9 7 12 2 2 3 5 3 7l0 178c0 19-2 36-8 53-5 17-13 33-22 47-10 14-21 26-35 38-13 12-27 22-43 29-16 8-32 14-50 19-18 4-37 6-55 6-18 0-37-2-55-6-18-5-34-11-50-19-16-7-30-17-43-29-14-12-25-24-35-38-9-14-17-30-22-47-6-17-8-34-8-53l0-128c0-3-1-5-3-7-2-2-5-3-8-3l-21 0c-3 0-6 1-8 3-2 2-3 4-3 7l0 128c0 23 3 44 10 66 6 22 15 42 26 61 12 19 25 36 41 52 16 16 34 30 52 41 19 11 39 20 61 27 22 6 44 9 66 9z m-185-309l54 0c3 0 6-1 8-3 2-2 3-5 3-8 1-2 2-6 3-10 1-5 3-14 5-29 2-15 3-30 3-46 0-16-1-31-3-45-2-14-4-25-5-31l-3-9c0-3-1-6-3-8-2-2-5-3-8-3l-54 0c-5 0-7 4-7 11l0 170c0 7 2 11 7 11z m316 0l54 0c5 0 7-4 7-11l0-98c-10-11-20-21-32-29-12-9-27-15-45-20-4 30-6 51-6 62 0 16 1 31 3 45 2 14 4 24 5 31l3 9c0 3 1 6 3 8 2 2 5 3 8 3z"/>
<glyph glyph-name="glyphicons-regular-1-95" unicode="&#57345;" d="M267 511c5 0 11-1 16-4 5-3 9-7 11-12l265-447c2-5 4-10 4-16 0-6-2-11-4-16-3-5-7-9-12-12-5-3-11-4-16-4l-528 0c-6 0-11 1-16 4-5 3-9 7-12 12-3 5-4 10-4 16 0 6 1 11 4 16l264 447c3 5 7 9 12 12 5 3 10 4 16 4z m-209-447l418 0-209 358z m187 256l43 0c3 0 6-1 8-3 2-2 3-5 3-8l0-40c0-5-1-10-2-16l-14-73c-1-2-2-5-4-6-2-2-4-3-6-3l-13 0c-2 0-3 1-5 3-2 1-3 4-4 6l-15 73c-1 5-1 10-1 16l0 40c0 3 1 6 3 8 2 2 4 3 7 3z m-2-171l48 0c2 0 4 0 5-2 2-2 3-3 3-6l0-48c0-2-1-4-3-5-1-2-3-3-5-3l-48 0c-3 0-4 1-6 3-2 1-2 3-2 5l0 48c0 3 0 4 2 6 2 2 3 2 6 2z"/>
<glyph glyph-name="glyphicons-regular-1-96" unicode="&#57346;" d="M437 512l64 0c3 0 6-1 8-3 2-2 3-5 3-8l0-501-85 0 0 501c0 3 1 6 3 8 2 2 4 3 7 3z m-106-128l64 0c3 0 5-1 7-3 2-2 3-5 3-8l0-373-85 0 0 373c0 3 1 6 3 8 2 2 5 3 8 3z m-107-107l64 0c3 0 6-1 8-3 2-2 3-4 3-7l0-267-86 0 0 267c0 3 1 5 3 7 2 2 5 3 8 3z m-107-64l64 0c3 0 6-1 8-3 2-2 3-4 3-7l0-203-85 0 0 203c0 3 1 5 3 7 2 2 4 3 7 3z m-106-64l64 0c3 0 5-1 7-3 2-2 3-4 3-7l0-139-85 0 0 139c0 3 1 5 3 7 2 2 5 3 8 3z"/>
<glyph glyph-name="glyphicons-regular-1-97" unicode="&#57347;" d="M129 405l351 0c3 0 6-1 8-3 2-2 3-4 3-7l0-182 53 0c3 0 5 0 6-2 1-2 0-4-2-6l-83-111c-1-2-4-3-6-3-3 0-5 1-7 3l-83 111c-1 2-2 4-1 6 1 2 3 2 6 2l53 0 0 128-248 0z m-69-3l83-114c2-2 2-4 2-7-1-2-3-4-6-4l-54 0 0-128 250 0 50-64-353 0c-3 0-6 1-8 3-2 2-3 5-3 8l0 181-53 0c-3 0-4 2-5 4-1 3-1 5 1 7l83 113c2 2 4 3 7 4 2 0 4-1 6-3z"/>
<glyph glyph-name="glyphicons-regular-1-98" unicode="&#57348;" d="M70 194l4 0c-7 20-10 39-10 59-1 20 2 40 8 60 6 20 16 38 28 55 15 21 33 37 54 51 21 13 43 21 66 26 23 4 46 4 71-1 24-4 47-13 68-27l-31-42c-2-3-2-5-1-6 1-2 3-3 6-3l138 3c3 0 5 1 7 3 1 2 2 4 1 7l-41 132c-1 3-3 5-5 5-1 0-3-1-5-3l-31-44-2 1c-18 12-38 22-60 29-21 7-42 11-63 12-21 2-42 1-63-3-21-4-41-11-61-19-19-9-37-21-54-35-18-14-33-30-46-48-11-16-21-33-28-50-8-18-13-36-16-54-3-18-5-36-4-55 1-18 3-36 8-54z m368 123l65 1c5-18 7-36 8-54 1-18-1-37-4-55-3-18-8-36-16-53-7-18-17-34-28-50-13-18-28-34-46-48-17-14-35-26-54-35-19-8-40-15-61-19-21-4-42-5-63-3-21 1-42 5-63 12-21 7-41 17-60 29l-1 1-32-44c-2-2-3-3-5-3-2 0-4 2-4 5l-42 132c0 3 0 5 1 7 2 2 4 3 7 3l139 3c3 0 4-1 5-3 1-1 1-3-1-6l-31-42c21-14 44-23 68-27 25-5 48-5 71-1 23 5 45 13 66 26 22 14 39 30 54 51 12 16 22 35 28 55 6 20 9 39 8 59 0 20-3 40-9 59z"/>
<glyph glyph-name="glyphicons-regular-1-99" unicode="&#57349;" d="M188 503c31 8 61 11 91 8 30-3 58-11 85-23 27-13 51-29 72-50l-58-34c-24 19-51 33-81 39-29 7-60 6-92-2-19-5-38-14-55-25 20-17 32-27 37-31 3-2 5-5 5-8 0-2-2-4-6-5-4-1-24-6-60-15-35-9-56-14-63-16-8-2-12-2-14-1-3 1-4 5-3 12 3 84 4 128 5 130 0 5 1 7 3 8 3 1 6 0 10-3l35-29c27 21 57 36 89 45z m246-109l120-68c3-1 4-3 4-6 0-2-1-4-3-5l-46-20c4-29 4-57-1-86-6-28-15-55-29-80-17-29-39-54-65-75-27-21-57-36-90-45-1 0-2 0-3 0-1-1-1-1-2-1l1 67c21 8 41 19 59 33 18 15 32 33 44 53 19 33 27 70 24 108-25-11-41-17-46-19-4-2-6-2-8 0-1 1-1 4 0 9l31 131c1 6 4 7 10 4z m-425-71l58-33c-5-29-4-57 4-85 7-27 20-51 37-72 18-21 39-37 63-49 3 22 5 36 7 44 1 9 6 10 13 4 3-4 18-19 45-45 27-27 42-43 46-47 4-4 5-7 5-9 0-2-2-4-6-6-4-2-23-13-58-32-35-19-54-30-58-32-5-3-8-4-10-3-2 1-3 4-2 8l8 53c-37 14-68 36-95 66-27 29-46 64-57 103-12 45-12 90 0 135z"/>
<glyph glyph-name="glyphicons-regular-1-100" unicode="&#57350;" d="M436 463l111-83c2-2 4-4 4-7-1-2-2-4-4-6l-111-83c-3-2-5-3-7-2-1 1-2 3-2 6l0 53-51 0-256-234-151 0c-3 0-6 1-8 3-2 2-4 4-4 7l0 43c0 3 2 5 4 7 2 3 5 4 8 4l126 0 256 234 76 0 0 54c0 3 1 4 2 5 2 1 4 1 7-1z m-224-142l-47-43-70 63-126 0c-3 0-6 1-8 3-2 2-4 5-4 8l0 43c0 3 2 5 4 7 2 2 5 3 8 3l151 0z m164-150l51 0 0 53c0 3 1 5 2 6 2 0 4 0 7-2l111-83c2-2 4-4 4-6 0-3-2-5-4-7l-111-83c-3-2-5-2-7-1-1 0-2 2-2 5l0 54-76 0-92 84 48 43z"/>
<glyph glyph-name="glyphicons-regular-1-101" unicode="&#57351;" d="M83 524l85-110c2-3 2-5 1-6-1-2-2-3-5-3l-56 0c0-13-1-26-2-37-2-12-4-22-7-32-3-10-5-18-7-23-2-6-5-13-9-22-4-8-6-14-8-18-2-5-4-11-6-18-2-8-4-16-5-24-1-8-1-18-1-28 0-11 0-20 1-29 1-8 3-16 5-24 2-7 4-13 6-18 2-4 4-10 8-18 4-9 7-16 9-22 2-5 4-13 7-23 3-9 5-20 7-31 1-12 2-24 2-38l-64 0c0 11-1 20-2 28-1 9-2 17-4 24-3 8-5 14-6 18-2 4-4 10-8 18-4 9-7 17-9 22-2 6-5 13-8 23-3 10-5 21-6 32-1 11-2 24-2 38 0 13 1 26 2 37 1 12 3 22 6 32 3 10 6 18 8 23 2 6 5 13 9 22 4 8 6 14 8 18 1 5 3 11 6 18 2 8 3 16 4 24 1 8 2 18 2 28l-51 0c-3 0-5 1-5 3-1 2-1 4 1 6l81 110c2 3 4 4 6 4 3 0 5-1 7-4z m213 0l85-110c2-3 2-5 2-6-1-2-3-3-6-3l-56 0c0-13-1-26-2-37-1-12-3-22-6-32-3-10-6-18-8-23-2-6-5-13-9-22-4-8-6-14-8-18-1-5-3-11-6-18-2-8-3-16-4-24-1-8-2-18-2-28 0-11 1-20 2-29 1-8 2-16 4-24 3-7 5-13 6-18 2-4 4-10 8-18 4-9 7-16 9-22 2-5 5-13 8-23 3-9 5-20 6-31 1-12 2-24 2-38l-64 0c0 11 0 20-1 28-1 9-3 17-5 24-2 8-4 14-6 18-2 4-4 10-8 18-4 9-7 17-9 22-2 6-4 13-7 23-3 10-5 21-7 32-1 11-2 24-2 38 0 13 1 26 2 37 2 12 4 22 7 32 3 10 5 18 7 23 2 6 5 13 9 22 4 8 6 14 8 18 2 5 4 11 6 18 2 8 4 16 5 24 1 8 1 18 1 28l-50 0c-3 0-5 1-6 3-1 2 0 4 1 6l81 110c2 3 4 4 7 4 2 0 4-1 6-4z m213 0l86-110c1-3 2-5 1-6-1-2-3-3-6-3l-56 0c0-13 0-26-2-37-1-12-3-22-6-32-3-10-5-18-8-23-2-6-5-13-9-22-3-8-6-14-7-18-2-5-4-11-6-18-3-8-4-16-5-24-1-8-1-18-1-28 0-11 0-20 1-29 1-8 2-16 5-24 2-7 4-13 6-18 1-4 4-10 7-18 4-9 7-16 9-22 3-5 5-13 8-23 3-9 5-20 6-31 2-12 2-24 2-38l-64 0c0 11 0 20-1 28-1 9-2 17-5 24-2 8-4 14-6 18-1 4-4 10-7 18-4 9-7 17-9 22-3 6-5 13-8 23-3 10-5 21-6 32-2 11-2 24-2 38 0 13 0 26 2 37 1 12 3 22 6 32 3 10 5 18 8 23 2 6 5 13 9 22 3 8 6 14 7 18 2 5 4 11 6 18 3 8 4 16 5 24 1 8 1 18 1 28l-50 0c-3 0-5 1-6 3-1 2 0 4 2 6l81 110c1 3 3 4 6 4 2 0 5-1 6-4z"/>
<glyph glyph-name="glyphicons-regular-1-102" unicode="&#57352;" d="M400 469l31 44c2 2 4 3 5 3 2 0 4-2 5-5l41-132c1-3 0-5-1-7-2-2-4-3-7-3l-138-3c-3 0-5 1-6 3-1 1-1 3 1 6l31 42c-21 14-44 23-68 27-25 5-48 5-71 1-23-5-45-13-66-26-21-14-39-30-54-51-24-33-36-70-36-112 0-25 5-49 14-73 10-24 24-45 42-63 18-18 39-32 62-41 23-10 47-15 72-15 13 0 25 1 38 3 12 2 24 6 37 11 13 4 25 11 37 20 12 9 23 19 34 31 2 2 6 8 12 15 5 8 9 14 12 18 2 3 6 5 12 6 5 0 10-2 15-5l17-12c5-3 8-7 10-12 2-5 1-9-1-13-3-4-7-10-14-20-7-9-12-16-15-19-12-15-26-28-43-39-16-11-32-21-50-27-17-7-34-13-51-16-18-4-34-5-50-5-33 0-65 7-96 19-31 13-59 31-83 55-12 12-22 24-30 37-9 13-16 26-22 38-6 13-10 25-14 38-3 13-6 25-7 36-1 11-2 22-2 33 0 26 4 52 12 78 8 26 20 50 36 72 13 18 28 34 46 48 17 14 35 26 54 35 19 8 40 15 61 19 21 4 42 5 63 3 21-1 42-5 63-12 22-7 42-17 60-29z"/>
<glyph glyph-name="glyphicons-regular-1-103" unicode="&#57353;" d="M-21 512l554 0c6 0 11-2 15-6 5-4 7-10 7-15l0-363c0-6-2-11-7-15-4-4-9-6-15-6l-234 0 0-22c0-5 0-11 2-15 2-5 4-9 6-12 3-3 5-5 8-7 3-3 7-4 10-5 3-1 5-2 8-2 2-1 4-1 6-1l80 0c2 0 4-1 5-3 2-1 3-3 3-5l0-35-342 0 0 35c0 2 1 4 3 5 1 2 3 3 5 3l79 0c0 0 1 0 2 0 1 0 3 0 6 1 3 0 5 1 8 2 3 1 6 2 9 5 3 2 6 4 8 7 2 3 4 7 6 12 2 4 2 10 2 15l0 22-234 0c-6 0-11 2-15 6-5 4-7 9-7 15l0 363c0 5 2 11 7 15 4 4 9 6 15 6z m21-43l0-298 512 0 0 298z m491-320l0-21 21 0 0 21z"/>
<glyph glyph-name="glyphicons-regular-1-104" unicode="&#57354;" d="M96 512l309 0c14 0 28-4 41-12 13-9 24-19 32-33 9-13 13-26 13-40l0-320-43-43 0 341c0 43-21 64-64 64l-262 0-42-42 261 0c18 0 33-7 46-19 12-13 18-28 18-45l0-299c0-18-6-33-18-45-13-13-28-19-46-19l-320 0 0 432z m254-232l-33 33c-1 1-3 1-4 1-1 0-3 0-4-1l-106-107c-1-1-2-1-4-1-1 0-2 0-3 1l-40 40c-1 1-2 1-4 1-1 0-2 0-3-1l-33-33c-1-1-2-3-2-4 0-1 1-2 2-3l80-80c1-1 2-2 3-2 1 0 3 1 4 2l147 147c1 1 1 2 1 3 0 2 0 3-1 4z"/>
<glyph glyph-name="glyphicons-regular-1-105" unicode="&#57355;" d="M96 512l309 0c11 0 21-2 32-7 10-5 19-12 27-20 8-7 14-17 19-27 5-11 8-21 8-31l0-320-43-43 0 341c0 43-21 64-64 64l-262 0-42-42 261 0c18 0 33-7 46-19 12-13 18-28 18-45l0-299c0-18-6-33-18-45-13-13-28-19-46-19l-320 0 0 432z m117-179c-13 0-23-4-31-12-8-8-11-18-11-30l0-43c0-5 2-10 7-17 4-6 9-10 14-11l0-19c-7-3-20-8-41-16-22-7-33-11-35-12-4-3-6-5-7-7-2-3-2-7-2-12l0-21c0-2 0-3 1-4 1-1 2-1 3-1l204 0c2 0 3 0 4 1 1 1 1 2 1 4l0 21c0 5-1 9-2 12-1 2-4 4-7 7-2 1-14 5-35 12-21 8-35 13-41 16l0 19c5 1 9 5 14 11 5 7 7 12 7 17l0 43c0 12-4 22-11 30-8 8-18 12-32 12z"/>
<glyph glyph-name="glyphicons-regular-1-106" unicode="&#57356;" d="M320 533l107 0 42-42-426 0 42 42 107 0 21 22 86 0z m149-490l22 0 0-22 21 0 0-21-213 0 0 64-86 0 0-64-213 0 0 21 21 0 0 22 22 0 0 426 426 0z m-362 362l0-42 85 0 0 42z m106 0l0-42 86 0 0 42z m107 0l0-42 85 0 0 42z m-213-85l0-43 85 0 0 43z m106 0l0-43 86 0 0 43z m107 0l0-43 85 0 0 43z m-213-85l0-43 85 0 0 43z m106 0l0-43 86 0 0 43z m107 0l0-43 85 0 0 43z m-213-86l0-42 85 0 0 42z m106 0l0-42 86 0 0 42z m107 0l0-42 85 0 0 42z"/>
<glyph glyph-name="glyphicons-regular-1-107" unicode="&#57357;" d="M431 509c14 0 27-6 39-18l15-15c5-6 9-11 12-16 3-6 5-11 6-16 1-5 1-10 0-15-1-5-2-10-4-14-2-5-5-9-8-14-3-5-6-9-10-13-3-4-7-8-11-12l-68-68-3-3 33-33c3-3 5-8 5-12 0-5-2-9-5-12l-30-31c-3-3-7-5-12-5-5 0-9 2-13 6l-23 23-192-191c-6-6-14-11-23-15-9-3-18-5-27-5-4 0-7 0-11 1-1 0-3 0-4-1-2 0-3-1-4-2l-7-7c-10-10-22-15-37-15-14 0-25 4-35 14-9 10-14 21-14 35 0 14 5 26 15 36l8 8c0 0 1 2 2 3 0 2 1 3 1 4-3 10-2 21 2 33 3 11 9 21 17 29l191 191-24 24c-3 3-5 7-5 12 0 5 2 9 5 12l30 31c3 3 7 4 12 4 5 0 9-1 13-5l33-33c1 2 2 3 3 3l67 69c23 22 43 33 61 33z m-363-360l151 0 114 114-76 75z"/>
<glyph glyph-name="glyphicons-regular-1-108" unicode="&#57358;" d="M256 517c24 0 47-3 69-9 23-6 44-15 63-26 19-12 36-25 53-41 16-17 29-34 41-53 11-19 20-40 26-63 6-22 9-45 9-69 0-24-3-47-9-69-6-23-15-44-26-63-12-19-25-36-41-53-17-16-34-29-53-41-19-11-40-20-63-26-22-6-45-9-69-9-24 0-47 3-69 9-23 6-44 15-63 26-19 12-36 25-53 41-16 17-29 34-41 53-11 19-20 40-26 63-6 22-9 45-9 69 0 24 3 47 9 69 6 23 15 44 26 63 12 19 25 36 41 53 17 16 34 29 53 41 19 11 40 20 63 26 22 6 45 9 69 9z m-21-469l0 416c-27-3-51-11-74-23-23-12-43-27-59-45-17-18-30-40-39-64-9-24-14-50-14-76 0-26 5-52 14-76 9-24 22-46 39-64 16-18 36-33 59-45 23-12 47-20 74-23z"/>
<glyph glyph-name="glyphicons-regular-1-109" unicode="&#57359;" d="M416 533c3-9 6-18 11-26 4-9 9-17 14-25 5-7 10-14 16-22 5-7 10-15 15-22 5-7 9-14 13-22 4-7 7-15 10-23 2-9 3-17 3-26 0-11-3-21-7-31-5-9-12-17-20-24-8-6-16-11-26-14-10-4-19-6-29-6-9 0-19 2-29 5-9 4-18 9-26 15-8 6-14 14-19 24-5 9-8 20-8 31 0 8 1 17 3 25 3 9 6 17 10 24 4 7 8 15 13 22 5 7 10 14 15 22 6 7 11 15 16 22 5 8 9 16 14 25 5 9 8 18 11 26z m-233-31c5-18 12-36 21-53 10-18 19-35 29-49 10-15 20-30 31-45 11-15 21-29 31-44 9-14 18-28 26-43 8-15 14-30 19-47 4-17 7-34 7-51 0-15-3-30-7-43-5-14-11-27-19-37-8-11-17-21-28-30-10-9-22-16-34-22-12-6-25-10-38-13-13-3-26-5-38-5-13 0-26 2-39 5-13 3-25 7-37 13-12 6-24 13-34 22-11 8-20 18-28 29-8 11-14 23-19 37-5 13-7 28-7 43 0 17 2 34 7 51 4 17 11 32 18 47 8 15 17 29 26 44 10 14 20 29 31 44 11 15 21 30 31 44 10 15 20 32 29 49 9 18 16 36 22 54z m204-81c1 3 0 5-3 6-3 1-7 0-9-5-1 0-1-1-1-1-5-8-9-17-13-27-3-10-5-19-5-27 0-10 4-18 11-25 7-7 17-11 28-12 5 1 8 2 7 5 0 2-3 4-7 7-5 2-8 5-11 10-3 5-4 11-4 17 0 9 1 18 2 27 1 10 3 18 5 25z m-262-144c2 6 1 10-4 12-5 2-10 1-16-3-2-2-5-5-7-9-9-16-18-34-25-54-7-20-10-38-10-54 0-9 2-18 6-26 3-9 9-16 15-23 7-7 15-13 25-17 9-4 20-7 31-7 7 0 12 2 14 4 2 3 2 6-1 9-3 4-7 7-13 9-9 4-16 11-21 22-6 10-8 21-8 33 0 18 1 36 3 55 3 19 6 36 11 49z"/>
<glyph glyph-name="glyphicons-regular-1-110" unicode="&#57360;" d="M527 497l-79-79 0-269 85 0 0-85-469 0 0 448 85 0 0-64 269 0 79 79z m-484-134l-64 0 0 85 64 0z m106 0l0-184 184 184z m30-214l184 0 0 184z m269-170l-85 0 0 64 85 0z"/>
<glyph glyph-name="glyphicons-regular-1-111" unicode="&#57361;" d="M512 427l-21 0 0-342 21 0 0-85-85 0 0 21-342 0 0-21-85 0 0 85 21 0 0 342-21 0 0 85 85 0 0-21 342 0 0 21 85 0z m-491 64l0-43 43 0 0 43z m427 0l0-43 43 0 0 43z m-363-43l0-21-21 0 0-342 21 0 0-21 342 0 0 21 21 0 0 342-21 0 0 21z m-64-384l0-43 43 0 0 43z m427 0l0-43 43 0 0 43z"/>
<glyph glyph-name="glyphicons-regular-1-112" unicode="&#57362;" d="M299 512l0-25c31-6 60-18 86-35 27-18 49-40 67-67 17-26 29-55 35-86l25 0 0-86-25 0c-6-31-18-60-35-86-18-27-40-49-67-67-26-17-55-29-86-35l0-25-86 0 0 25c-31 6-60 18-86 35-27 18-49 40-67 67-17 26-29 55-35 86l-25 0 0 86 25 0c6 31 18 60 35 86 18 27 40 49 67 67 26 17 55 29 86 35l0 25z m-64-21l0-43 42 0 0 43z m64-64l-86 0 0 16c-36-8-66-25-93-51-26-27-43-57-51-93l16 0 0-86-16 0c8-36 25-66 51-93 27-26 57-43 93-51l0 16 86 0 0-16c36 8 66 25 93 51 26 27 43 57 51 93l-16 0 0 86 16 0c-8 36-25 66-51 93-27 26-57 43-93 51z m-278-150l0-42 43 0 0 42z m427 0l0-42 43 0 0 42z m-213-213l0-43 42 0 0 43z"/>
<glyph glyph-name="glyphicons-regular-1-113" unicode="&#57363;" d="M299 485l170-122 64 0 0-86-32 0-62-192 9 0 0-85-85 0 0 21-214 0 0-21-85 0 0 85 9 0-63 192-31 0 0 86 65 0 169 122 0 48 86 0z m-64 27l0-43 42 0 0 43z m0-64l-171-123 0-48-9 0 63-192 31 0 0-21 214 0 0 21 31 0 63 192-9 0 0 48-171 123z m-235-107l0-42 43 0 0 42z m469 0l0-42 43 0 0 42z m-384-277l0-43 43 0 0 43z m299 0l0-43 43 0 0 43z"/>
<glyph glyph-name="glyphicons-regular-1-114" unicode="&#57364;" d="M512 427l-55 0-372-372 0-55-85 0 0 85 55 0 372 372 0 55 85 0z m-64 64l0-43 43 0 0 43z m-427-427l0-43 43 0 0 43z"/>
<glyph glyph-name="glyphicons-regular-1-115" unicode="&#57365;" d="M512 427l-85 0 0 13c-45-9-87-24-126-45-40-21-75-47-106-78-31-31-57-66-78-106-21-39-36-81-45-126l13 0 0-85-85 0 0 85 29 0c6 34 15 66 28 98 12 31 28 61 46 88 18 27 38 52 62 76 24 24 49 44 76 62 27 18 57 34 88 46 32 13 64 22 98 28l0 29 85 0z m-64 64l0-43 43 0 0 43z m-427-427l0-43 43 0 0 43z"/>
<glyph glyph-name="glyphicons-regular-1-116" unicode="&#57366;" d="M512 427l-21 0 0-128 21 0 0-86-21 0 0-128 21 0 0-85-85 0 0 21-128 0 0-21-86 0 0 21-128 0 0-21-85 0 0 85 21 0 0 128-21 0 0 86 21 0 0 128-21 0 0 85 85 0 0-21 128 0 0 21 86 0 0-21 128 0 0 21 85 0z m-491 64l0-43 43 0 0 43z m214 0l0-43 42 0 0 43z m213 0l0-43 43 0 0 43z m-149-43l0-21-86 0 0 21-128 0 0-21-21 0 0-128 21 0 0-86-21 0 0-128 21 0 0-21 128 0 0 21 86 0 0-21 128 0 0 21 21 0 0 128-21 0 0 86 21 0 0 128-21 0 0 21z m-278-171l0-42 43 0 0 42z m427 0l0-42 43 0 0 42z m-427-213l0-43 43 0 0 43z m214 0l0-43 42 0 0 43z m213 0l0-43 43 0 0 43z"/>
<glyph glyph-name="glyphicons-regular-1-117" unicode="&#57367;" d="M257 512l158-408c0-2 1-4 2-7 2-2 4-7 8-13 5-7 9-13 14-18 5-5 10-9 15-12 5-3 9-5 11-5l4-1 0-27-170 0 0 27c6 0 11 2 16 4 4 2 8 5 11 9 3 4 5 8 6 13 2 5 2 9 2 14 0 5-1 10-3 14l-33 91-160 0c-16-39-29-71-38-96-3-7-4-14-3-19 1-5 3-10 6-14 3-3 7-7 12-9 5-2 11-4 16-5 6-1 12-2 18-2l0-27-149 0 0 27c2 1 4 2 7 3 2 2 7 4 13 8 6 4 11 7 14 10 4 4 7 8 11 13 3 5 6 10 8 13l2 5 164 412z m301-191l18-10 0-12-85 0 0 12 23 11-16 42-75 0-20-43 24-10 0-12-64 0 0 12 20 10 80 191 17 0z m-127 63l63 0-22 60-8 26z m-283-149l140 0-48 129-19 58z"/>
<glyph glyph-name="glyphicons-regular-1-118" unicode="&#57368;" d="M385 512l0-24c-9-2-17-4-22-6-5-1-10-3-15-5-5-2-9-4-11-6-3-2-5-5-7-9-2-3-4-7-5-11-1-4-2-9-3-16l-61-359c-1-7-1-13 1-19 2-6 5-11 8-16 4-4 8-8 13-11 5-3 10-5 16-6l0-24-192 0 0 24c20 2 37 8 49 17 12 9 19 21 21 35l68 359c1 2 1 4 2 7 3 15 3 25 0 30-3 5-15 10-34 16l0 24z"/>
<glyph glyph-name="glyphicons-regular-1-119" unicode="&#57369;" d="M43 512l233 0c13 0 26-2 40-6 13-4 25-10 37-18 12-8 23-17 32-27 10-11 17-24 23-38 5-15 8-30 8-46 0-9-1-18-3-26-3-8-5-15-9-22-4-6-8-12-13-18-4-5-9-10-15-14-5-5-10-8-15-12-6-3-11-6-16-8-4-3-8-5-12-6-4-2-7-3-9-3l-3-1c1-1 2-1 4-2 2 0 6-1 11-3 6-2 11-4 17-7 5-2 11-6 19-10 7-4 14-9 20-14 7-5 13-11 19-18 7-7 12-14 17-22 4-8 8-17 11-28 3-10 4-21 4-32 0-13-2-25-6-37-4-11-9-21-15-30-7-8-15-16-24-23-9-8-19-14-29-19-10-5-20-9-31-12-11-4-22-6-32-8-11-1-21-2-30-2l-233 0 0 38c11 2 21 6 30 14 8 7 12 16 12 28l0 353c0 6 0 11 0 14 0 3 0 6-1 10-1 4-2 7-4 8-2 2-4 4-7 6-4 3-8 4-12 6-5 1-11 3-18 4z m212-64l-63 0 0-149 63 0c8 0 16 1 22 4 7 3 12 7 16 11 4 5 8 11 10 17 3 7 5 13 6 20 1 7 2 15 2 22 0 8-1 16-2 22-1 7-3 14-6 21-2 6-6 12-10 16-4 5-9 9-16 12-6 3-14 4-22 4z m0-213l-63 0 0-171 64 0c24 0 43 7 57 20 14 14 20 33 20 58 0 13-1 25-4 36-3 11-8 20-14 29-7 9-15 15-25 20-10 5-22 8-35 8z"/>
<glyph glyph-name="glyphicons-regular-1-120" unicode="&#57370;" d="M469 405l-21 0c0 21-6 37-17 48-12 11-28 16-47 16l-85 0 0-341c0-3 0-5 1-7 2-2 3-4 6-5 2-2 5-3 7-4 3-1 6-2 10-3 4 0 7-1 10-1 3-1 6-1 11-1 4 0 7 0 10 0l9 0 0-22-214 0 0 22 9 0c0 0 4 0 10 0 7 0 10 0 11 1 1 0 4 1 10 1 6 1 9 2 10 3 0 1 3 2 7 4 5 1 7 3 6 5-1 2-1 4 1 7l0 341-85 0c-19 0-35-5-47-16-11-11-17-27-17-48l-21 0 0 107 426 0z m0-405l-426 0 0 43 426 0z"/>
<glyph glyph-name="glyphicons-regular-1-121" unicode="&#57371;" d="M469 405l-21 0c0 21-6 37-17 48-12 11-28 16-47 16l-85 0 0-170 170 0 0-43-170 0 0-171c0-2 0-5 1-7 2-2 3-4 6-5 2-1 5-3 7-4 3-1 6-2 10-2 4-1 7-1 10-2 3 0 6 0 11-1 4 0 7 0 10 0l9 0 0-21-214 0 0 21 9 0c0 0 4 0 10 0 7 1 10 1 11 1 1 1 4 1 10 2 6 0 9 1 10 2 0 1 3 3 7 4 5 1 7 3 6 5-1 2-1 5 1 7l0 171-170 0 0 43 170 0 0 170-85 0c-19 0-35-5-47-16-11-11-17-27-17-48l-21 0 0 107 426 0z"/>
<glyph glyph-name="glyphicons-regular-1-122" unicode="&#57372;" d="M85 448l-42 0 0-341 42 0-53-71-53 71 42 0 0 341-42 0 53 71z m448-43l-21 0c0 21-6 37-17 48-12 11-28 16-47 16l-85 0 0-384c0-2 0-5 1-7 2-2 3-4 6-5 2-1 5-3 7-4 3-1 6-2 10-2 4-1 7-1 10-2 3 0 6 0 11-1 4 0 7 0 10 0l9 0 0-21-214 0 0 21 9 0c0 0 4 0 10 0 7 1 10 1 11 1 1 1 4 1 10 2 6 0 9 1 10 2 0 1 3 3 7 4 5 1 7 3 6 5-1 2-1 5 1 7l0 384-85 0c-19 0-35-5-47-16-11-11-17-27-17-48l-21 0 0 107 426 0z"/>
<glyph glyph-name="glyphicons-regular-1-123" unicode="&#57373;" d="M469 405l-21 0c0 21-6 37-17 48-12 11-28 16-47 16l-85 0 0-320c0-3 1-6 3-9 2-2 5-4 9-6 4-1 8-2 11-3 4-1 9-2 15-2 6-1 10-1 13-1 3 0 8 0 13 0l0-21-214 0 0 21c5 0 10 0 13 0 3 0 7 0 13 1 6 0 11 1 15 2 3 1 7 2 11 3 4 2 7 4 9 6 2 3 3 6 3 9l0 320-85 0c-19 0-35-5-47-16-11-11-17-27-17-48l-21 0 0 107 426 0z m7-352l-71-53 0 43-298 0 0-43-71 53 71 54 0-43 298 0 0 43z"/>
<glyph glyph-name="glyphicons-regular-1-124" unicode="&#57374;" d="M533 469l-21 0 0-426 21 0 0-64-64 0 0 21-426 0 0-21-64 0 0 64 21 0 0 426-21 0 0 64 64 0 0-21 426 0 0 21 64 0z m-533 43l0-21 21 0 0 21z m491 0l0-21 21 0 0 21z m-448-21l0-22-22 0 0-426 22 0 0-22 426 0 0 22 22 0 0 426-22 0 0 22z m426-150l-21 0c0 21-6 37-17 48-12 11-28 16-47 16l-85 0 0-298c0-3 0-5 1-7 2-3 3-4 6-6 2-1 5-2 7-3 3-2 6-2 10-3 4-1 7-1 10-1 3-1 6-1 11-1 4-1 7-1 10-1l9 0 0-21-214 0 0 21 9 0c0 0 4 0 10 1 7 0 10 0 11 1 1 0 4 0 10 1 6 1 9 1 10 3 0 1 3 2 7 3 5 2 7 3 6 6-1 2-1 4 1 7l0 298-85 0c-19 0-35-5-47-16-11-11-17-27-17-48l-21 0 0 107 426 0z m-469-320l0-21 21 0 0 21z m491 0l0-21 21 0 0 21z"/>
<glyph glyph-name="glyphicons-regular-1-125" unicode="&#57375;" d="M192 21l-43 0 0 470 43 0z m32 427l128 0c3 0 6-1 8-3 2-2 3-5 3-8l0-42c0-3-1-6-3-8-2-2-5-3-8-3l-128 0c-3 0-6 1-8 3-2 2-3 5-3 8l0 42c0 3 1 6 3 8 2 2 5 3 8 3z m0-107l235 0c3 0 5-1 7-3 2-2 3-4 3-7l0-43c0-3-1-6-3-8-2-2-4-3-7-3l-235 0c-3 0-6 1-8 3-2 2-3 5-3 8l0 43c0 3 1 5 3 7 2 2 5 3 8 3z m-89-96l-71-53 0 43-64 0 0 21 64 0 0 43z m89-10l171 0c3 0 5-1 7-3 2-2 3-5 3-8l0-43c0-3-1-5-3-7-2-2-4-3-7-3l-171 0c-3 0-6 1-8 3-2 2-3 4-3 7l0 43c0 3 1 6 3 8 2 2 5 3 8 3z m0-107l277 0c3 0 6-1 8-3 2-2 3-5 3-8l0-42c0-3-1-6-3-8-2-2-5-3-8-3l-277 0c-3 0-6 1-8 3-2 2-3 5-3 8l0 42c0 3 1 6 3 8 2 2 5 3 8 3z"/>
<glyph glyph-name="glyphicons-regular-1-126" unicode="&#57376;" d="M363 21l-43 0 0 470 43 0z m-352 427l128 0c3 0 5-1 7-3 2-2 3-5 3-8l0-42c0-3-1-6-3-8-2-2-4-3-7-3l-128 0c-3 0-6 1-8 3-2 2-3 5-3 8l0 42c0 3 1 6 3 8 2 2 5 3 8 3z m0-107l234 0c3 0 6-1 8-3 2-2 3-4 3-7l0-43c0-3-1-6-3-8-2-2-5-3-8-3l-234 0c-3 0-6 1-8 3-2 2-3 5-3 8l0 43c0 3 1 5 3 7 2 2 5 3 8 3z m437-85l64 0 0-21-64 0 0-43-71 53 71 54z m-437-21l170 0c3 0 6-1 8-3 2-2 3-5 3-8l0-43c0-3-1-5-3-7-2-2-5-3-8-3l-170 0c-3 0-6 1-8 3-2 2-3 4-3 7l0 43c0 3 1 6 3 8 2 2 5 3 8 3z m0-107l277 0c3 0 6-1 8-3 2-2 3-5 3-8l0-42c0-3-1-6-3-8-2-2-5-3-8-3l-277 0c-3 0-6 1-8 3-2 2-3 5-3 8l0 42c0 3 1 6 3 8 2 2 5 3 8 3z"/>
<glyph glyph-name="glyphicons-regular-1-127" unicode="&#57377;" d="M11 469l277 0c3 0 5-1 7-3 2-2 3-4 3-7l0-43c0-3-1-6-3-8-2-2-4-3-7-3l-277 0c-3 0-6 1-8 3-2 2-3 5-3 8l0 43c0 3 1 5 3 7 2 2 5 3 8 3z m0-128l447 0c3 0 6-1 8-3 2-2 3-4 3-7l0-43c0-3-1-6-3-8-2-2-5-3-8-3l-447 0c-3 0-6 1-8 3-2 2-3 5-3 8l0 43c0 3 1 5 3 7 2 2 5 3 8 3z m0-128l362 0c3 0 5-1 8-3 2-2 3-4 3-7l0-43c0-3-1-6-3-8-3-2-5-3-8-3l-362 0c-3 0-6 1-8 3-2 2-3 5-3 8l0 43c0 3 1 5 3 7 2 2 5 3 8 3z m0-128l490 0c3 0 6-1 8-3 2-2 3-4 3-7l0-43c0-3-1-6-3-8-2-2-5-3-8-3l-490 0c-3 0-6 1-8 3-2 2-3 5-3 8l0 43c0 3 1 5 3 7 2 2 5 3 8 3z"/>
<glyph glyph-name="glyphicons-regular-1-128" unicode="&#57378;" d="M96 469l320 0c3 0 6-1 8-3 2-2 3-4 3-7l0-43c0-3-1-6-3-8-2-2-5-3-8-3l-320 0c-3 0-6 1-8 3-2 2-3 5-3 8l0 43c0 3 1 5 3 7 2 2 5 3 8 3z m-85-128l490 0c3 0 6-1 8-3 2-2 3-4 3-7l0-43c0-3-1-6-3-8-2-2-5-3-8-3l-490 0c-3 0-6 1-8 3-2 2-3 5-3 8l0 43c0 3 1 5 3 7 2 2 5 3 8 3z m85-128l320 0c3 0 6-1 8-3 2-2 3-4 3-7l0-43c0-3-1-6-3-8-2-2-5-3-8-3l-320 0c-3 0-6 1-8 3-2 2-3 5-3 8l0 43c0 3 1 5 3 7 2 2 5 3 8 3z m-85-128l490 0c3 0 6-1 8-3 2-2 3-4 3-7l0-43c0-3-1-6-3-8-2-2-5-3-8-3l-490 0c-3 0-6 1-8 3-2 2-3 5-3 8l0 43c0 3 1 5 3 7 2 2 5 3 8 3z"/>
<glyph glyph-name="glyphicons-regular-1-129" unicode="&#57379;" d="M224 469l277 0c3 0 6-1 8-3 2-2 3-4 3-7l0-43c0-3-1-6-3-8-2-2-5-3-8-3l-277 0c-3 0-5 1-7 3-2 2-3 5-3 8l0 43c0 3 1 5 3 7 2 2 4 3 7 3z m-170-128l447 0c3 0 6-1 8-3 2-2 3-4 3-7l0-43c0-3-1-6-3-8-2-2-5-3-8-3l-447 0c-3 0-6 1-8 3-2 2-3 5-3 8l0 43c0 3 1 5 3 7 2 2 5 3 8 3z m85-128l362 0c3 0 6-1 8-3 2-2 3-4 3-7l0-43c0-3-1-6-3-8-2-2-5-3-8-3l-362 0c-3 0-5 1-8 3-2 2-3 5-3 8l0 43c0 3 1 5 3 7 3 2 5 3 8 3z m-128-128l490 0c3 0 6-1 8-3 2-2 3-4 3-7l0-43c0-3-1-6-3-8-2-2-5-3-8-3l-490 0c-3 0-6 1-8 3-2 2-3 5-3 8l0 43c0 3 1 5 3 7 2 2 5 3 8 3z"/>
<glyph glyph-name="glyphicons-regular-1-130" unicode="&#57380;" d="M11 469l490 0c3 0 6-1 8-3 2-2 3-4 3-7l0-43c0-3-1-6-3-8-2-2-5-3-8-3l-490 0c-3 0-6 1-8 3-2 2-3 5-3 8l0 43c0 3 1 5 3 7 2 2 5 3 8 3z m0-128l490 0c3 0 6-1 8-3 2-2 3-4 3-7l0-43c0-3-1-6-3-8-2-2-5-3-8-3l-490 0c-3 0-6 1-8 3-2 2-3 5-3 8l0 43c0 3 1 5 3 7 2 2 5 3 8 3z m0-128l490 0c3 0 6-1 8-3 2-2 3-4 3-7l0-43c0-3-1-6-3-8-2-2-5-3-8-3l-490 0c-3 0-6 1-8 3-2 2-3 5-3 8l0 43c0 3 1 5 3 7 2 2 5 3 8 3z m0-128l490 0c3 0 6-1 8-3 2-2 3-4 3-7l0-43c0-3-1-6-3-8-2-2-5-3-8-3l-490 0c-3 0-6 1-8 3-2 2-3 5-3 8l0 43c0 3 1 5 3 7 2 2 5 3 8 3z"/>
<glyph glyph-name="glyphicons-regular-1-131" unicode="&#57381;" d="M11 469l42 0c3 0 6-1 8-3 2-2 3-4 3-7l0-43c0-3-1-6-3-8-2-2-5-3-8-3l-42 0c-3 0-6 1-8 3-2 2-3 5-3 8l0 43c0 3 1 5 3 7 2 2 5 3 8 3z m106 0l384 0c3 0 6-1 8-3 2-2 3-4 3-7l0-43c0-3-1-6-3-8-2-2-5-3-8-3l-384 0c-3 0-5 1-7 3-2 2-3 5-3 8l0 43c0 3 1 5 3 7 2 2 4 3 7 3z m-106-128l42 0c3 0 6-1 8-3 2-2 3-4 3-7l0-43c0-3-1-6-3-8-2-2-5-3-8-3l-42 0c-3 0-6 1-8 3-2 2-3 5-3 8l0 43c0 3 1 5 3 7 2 2 5 3 8 3z m106 0l384 0c3 0 6-1 8-3 2-2 3-4 3-7l0-43c0-3-1-6-3-8-2-2-5-3-8-3l-384 0c-3 0-5 1-7 3-2 2-3 5-3 8l0 43c0 3 1 5 3 7 2 2 4 3 7 3z m-106-128l42 0c3 0 6-1 8-3 2-2 3-4 3-7l0-43c0-3-1-6-3-8-2-2-5-3-8-3l-42 0c-3 0-6 1-8 3-2 2-3 5-3 8l0 43c0 3 1 5 3 7 2 2 5 3 8 3z m106 0l384 0c3 0 6-1 8-3 2-2 3-4 3-7l0-43c0-3-1-6-3-8-2-2-5-3-8-3l-384 0c-3 0-5 1-7 3-2 2-3 5-3 8l0 43c0 3 1 5 3 7 2 2 4 3 7 3z m-106-128l42 0c3 0 6-1 8-3 2-2 3-4 3-7l0-43c0-3-1-6-3-8-2-2-5-3-8-3l-42 0c-3 0-6 1-8 3-2 2-3 5-3 8l0 43c0 3 1 5 3 7 2 2 5 3 8 3z m106 0l384 0c3 0 6-1 8-3 2-2 3-4 3-7l0-43c0-3-1-6-3-8-2-2-5-3-8-3l-384 0c-3 0-5 1-7 3-2 2-3 5-3 8l0 43c0 3 1 5 3 7 2 2 4 3 7 3z"/>
<glyph glyph-name="glyphicons-regular-1-132" unicode="&#57382;" d="M320 320l-21 0c0 21-6 37-18 48-11 11-27 16-46 16l-22 0 0-256c0-3 1-5 2-7 1-2 3-4 5-5 3-2 5-3 8-4 2-1 6-2 9-3 4 0 8-1 11-1 2-1 6-1 10-1 5 0 8 0 10 0l9 0 0-22-192 0 0 22 9 0c0 0 4 0 10 0 7 0 10 0 11 1 1 0 4 1 10 1 6 1 9 2 10 3 0 1 3 2 7 4 5 1 7 3 6 5-1 2-1 4 1 7l0 256-21 0c-19 0-35-5-47-16-11-11-17-27-17-48l-21 0 0 107 277 0z m192-107l-171 0 0 43 171 0z"/>
<glyph glyph-name="glyphicons-regular-1-133" unicode="&#57383;" d="M427 384l-22 0c0 21-5 37-17 48-12 11-27 16-47 16l-85 0 0-384c0-3 1-5 2-7 1-2 3-4 5-5 2-2 5-3 8-4 2-1 5-2 9-3 4 0 7-1 10-1 3-1 7-1 11-1 4 0 8 0 10 0l9 0 0-22-213 0 0 22 9 0c0 0 3 0 10 0 6 0 10 0 10 1 1 0 5 1 11 1 6 1 9 2 9 3 1 1 3 2 8 4 4 1 6 3 5 5-1 2-1 4 2 7l0 384-86 0c-19 0-35-5-46-16-12-11-18-27-18-48l-21 0 0 107 427 0z m21-128l64 0 0-43-64 0 0-64-43 0 0 64-64 0 0 43 64 0 0 64 43 0z"/>
<glyph glyph-name="glyphicons-regular-1-134" unicode="&#57384;" d="M171 327l-169-90 169-95 0-56-235 135 0 32 235 131z m405-74l0-32-235-135 0 56 169 95-169 90 0 57z"/>
<glyph glyph-name="glyphicons-regular-1-135" unicode="&#57385;" d="M230 0l-54 0 201 512 53 0z m-59 327l-169-90 169-95 0-56-235 135 0 32 235 131z m405-74l0-32-235-135 0 36 11 26 158 89-102 55 17 45z"/>
</font>
</defs>
</svg>
